<svg width="38" height="32" viewBox="0 0 38 32" fill="none" xmlns="http://www.w3.org/2000/svg">
<g clip-path="url(#clip0_233_206)">
<g clip-path="url(#clip1_233_206)">
<g clip-path="url(#clip2_233_206)">
<mask id="mask0_233_206" style="mask-type:luminance" maskUnits="userSpaceOnUse" x="1" y="7" width="25" height="25">
<path d="M25.4619 7.36652H1.46191V31.3665H25.4619V7.36652Z" fill="white"/>
</mask>
<g mask="url(#mask0_233_206)">
<path d="M18.9618 8.28351C17.8358 8.30102 16.7343 8.61536 15.7686 9.19478C14.8029 9.7742 14.0072 10.5982 13.4618 11.5835C12.9165 10.5982 12.1208 9.7742 11.1551 9.19478C10.1894 8.61536 9.08792 8.30102 7.96187 8.28351C6.16681 8.3615 4.47557 9.14676 3.25765 10.4677C2.03973 11.7887 1.39412 13.538 1.46187 15.3335C1.46187 22.1085 12.4178 29.9335 12.8838 30.2655L13.4618 30.6745L14.0398 30.2655C14.5058 29.9355 25.4618 22.1085 25.4618 15.3335C25.5296 13.538 24.884 11.7887 23.6661 10.4677C22.4481 9.14676 20.7569 8.3615 18.9618 8.28351ZM13.4618 28.2125C10.2089 25.7825 3.46187 19.8125 3.46187 15.3335C3.39351 14.0682 3.82824 12.8272 4.67123 11.8812C5.51423 10.9352 6.6971 10.3609 7.96187 10.2835C9.22664 10.3609 10.4095 10.9352 11.2525 11.8812C12.0955 12.8272 12.5302 14.0682 12.4618 15.3335H14.4618C14.3935 14.0682 14.8282 12.8272 15.6712 11.8812C16.5142 10.9352 17.6971 10.3609 18.9618 10.2835C20.2266 10.3609 21.4095 10.9352 22.2525 11.8812C23.0955 12.8272 23.5302 14.0682 23.4618 15.3335C23.4618 19.8145 16.7148 25.7825 13.4618 28.2125Z" fill="#253D4E"/>
</g>
</g>
</g>
</g>
<rect x="16.8761" width="20.2372" height="20" rx="10" fill="#66B158"/>
<defs>
<clipPath id="clip0_233_206">
<rect width="25.2965" height="25" fill="white" transform="translate(0.686523 7)"/>
</clipPath>
<clipPath id="clip1_233_206">
<rect width="25" height="25" fill="white" transform="translate(0.686523 7)"/>
</clipPath>
<clipPath id="clip2_233_206">
<rect width="25" height="25" fill="white" transform="translate(0.686523 7)"/>
</clipPath>
</defs>
</svg>
