<svg width="16" height="16" viewBox="0 0 16 16" fill="none" xmlns="http://www.w3.org/2000/svg">
<g clip-path="url(#clip0_127_203)">
<path d="M7.36 7.30667H0V1.97333C0 1.44 0.195556 0.977777 0.586667 0.586666C0.977778 0.195555 1.45778 0 2.02667 0H7.36V7.30667ZM1.33333 5.97333H6.02667V1.33333H2.02667C1.81333 1.33333 1.64444 1.39556 1.52 1.52C1.39556 1.64444 1.33333 1.79556 1.33333 1.97333V5.97333ZM16 7.30667H8.69333V0H14.0267C14.56 0 15.0222 0.195555 15.4133 0.586666C15.8044 0.977777 16 1.45778 16 2.02667V7.30667ZM10.0267 5.97333H14.6667V1.97333C14.6667 1.79556 14.6044 1.64444 14.48 1.52C14.3556 1.39556 14.2044 1.33333 14.0267 1.33333H10.0267V5.97333ZM7.36 16H2.02667C1.45778 16 0.977778 15.8044 0.586667 15.4133C0.195556 15.0222 0 14.56 0 14.0267V8.64H7.36V16ZM1.33333 9.97333V13.9733C1.33333 14.1867 1.39556 14.3556 1.52 14.48C1.64444 14.6044 1.81333 14.6667 2.02667 14.6667H6.02667V9.97333H1.33333ZM14.0267 16H8.69333V8.64H16V13.9733C16 14.5422 15.8044 15.0222 15.4133 15.4133C15.0222 15.8044 14.5422 16 13.9733 16H14.0267ZM10.0267 14.6667H14.0267C14.2044 14.6667 14.3556 14.6044 14.48 14.48C14.6044 14.3556 14.6667 14.1867 14.6667 13.9733V9.97333H10.0267V14.6667Z" fill="white"/>
</g>
<defs>
<clipPath id="clip0_127_203">
<rect width="16" height="16" fill="white" transform="matrix(1 0 0 -1 0 16)"/>
</clipPath>
</defs>
</svg>
