<svg width="26" height="25" viewBox="0 0 26 25" fill="none" xmlns="http://www.w3.org/2000/svg">
<path d="M22.415 24.3665H20.4124V19.3235C20.4116 18.5395 20.0994 17.7879 19.5444 17.2335C18.9892 16.6791 18.2366 16.3673 17.4515 16.3665H9.35506C8.57002 16.3673 7.81739 16.6791 7.26229 17.2335C6.7072 17.7879 6.395 18.5395 6.39421 19.3235V24.3665H4.3916V19.3235C4.39318 18.0093 4.91663 16.7494 5.84711 15.8201C6.77759 14.8909 8.03914 14.3681 9.35506 14.3665H17.4515C18.7675 14.3681 20.029 14.8909 20.9595 15.8201C21.89 16.7494 22.4134 18.0093 22.415 19.3235V24.3665Z" fill="#253D4E"/>
<path d="M13.4033 12.3665C12.2151 12.3665 11.0535 12.0146 10.0656 11.3553C9.07758 10.696 8.30754 9.75898 7.85282 8.66262C7.39811 7.56626 7.27914 6.35986 7.51095 5.19598C7.74276 4.03209 8.31494 2.96299 9.15516 2.12388C9.99536 1.28476 11.0658 0.713318 12.2313 0.481807C13.3967 0.250296 14.6046 0.369116 15.7024 0.823242C16.8002 1.27737 17.7385 2.0464 18.3987 3.0331C19.0587 4.01979 19.4111 5.17983 19.4111 6.36652C19.4095 7.95733 18.7761 9.48253 17.6497 10.6074C16.5234 11.7323 14.9963 12.3649 13.4033 12.3665ZM13.4033 2.36652C12.6112 2.36652 11.8368 2.60111 11.1782 3.04064C10.5195 3.48017 10.0061 4.10488 9.70299 4.83579C9.39984 5.56669 9.32053 6.37096 9.47507 7.14688C9.62961 7.9228 10.0111 8.63554 10.5712 9.19495C11.1313 9.75436 11.8451 10.1353 12.622 10.2897C13.3989 10.444 14.2042 10.3648 14.9361 10.062C15.6679 9.75929 16.2934 9.2466 16.7335 8.5888C17.1736 7.931 17.4085 7.15764 17.4085 6.36652C17.4085 5.30565 16.9865 4.28824 16.2355 3.53809C15.4843 2.78795 14.4656 2.36652 13.4033 2.36652Z" fill="#253D4E"/>
</svg>
