<svg width="26" height="25" viewBox="0 0 26 25" fill="none" xmlns="http://www.w3.org/2000/svg">
<path fill-rule="evenodd" clip-rule="evenodd" d="M11.4093 2.34375C11.4093 2.34375 13.239 2.34375 14.9112 3.05011C14.9112 3.05011 16.5258 3.73212 17.7705 4.97521C17.7705 4.97521 19.0152 6.21831 19.6981 7.83076C19.6981 7.83076 20.4054 9.50078 20.4054 11.3281C20.4054 11.3281 20.4054 13.1555 19.6981 14.8255C19.6981 14.8255 19.0152 16.4379 17.7705 17.681C17.7705 17.681 16.5258 18.9241 14.9112 19.6061C14.9112 19.6061 13.239 20.3125 11.4093 20.3125C11.4093 20.3125 9.57956 20.3125 7.90736 19.6061C7.90736 19.6061 6.29281 18.9241 5.0481 17.681C5.0481 17.681 3.80338 16.4379 3.12049 14.8255C3.12049 14.8255 2.41321 13.1555 2.41321 11.3281C2.41321 11.3281 2.41321 9.50078 3.12048 7.83076C3.12048 7.83076 3.80338 6.21831 5.0481 4.97521C5.0481 4.97521 6.29281 3.73212 7.90736 3.05011C7.90736 3.05011 9.57955 2.34375 11.4093 2.34375ZM11.4093 3.90625C11.4093 3.90625 9.89682 3.90625 8.51683 4.48918C8.51683 4.48918 7.18332 5.05247 6.15439 6.08007C6.15439 6.08007 5.12545 7.10767 4.56143 8.43944C4.56143 8.43944 3.97774 9.81763 3.97774 11.3281C3.97774 11.3281 3.97774 12.8386 4.56143 14.2168C4.56143 14.2168 5.12545 15.5486 6.15439 16.5762C6.15439 16.5762 7.18333 17.6038 8.51683 18.1671C8.51683 18.1671 9.89682 18.75 11.4093 18.75C11.4093 18.75 12.9217 18.75 14.3017 18.1671C14.3017 18.1671 15.6352 17.6038 16.6642 16.5762C16.6642 16.5762 17.6931 15.5486 18.2571 14.2168C18.2571 14.2168 18.8408 12.8386 18.8408 11.3281C18.8408 11.3281 18.8408 9.81763 18.2571 8.43944C18.2571 8.43944 17.6931 7.10767 16.6642 6.08007C16.6642 6.08007 15.6352 5.05247 14.3017 4.48918C14.3017 4.48918 12.9217 3.90625 11.4093 3.90625Z" fill="#B6B6B6"/>
<path d="M21.4164 22.4271C21.5631 22.5736 21.7625 22.6563 21.9699 22.6563C22.1774 22.6563 22.3764 22.574 22.5231 22.4275C22.6698 22.281 22.7522 22.0822 22.7522 21.875C22.7522 21.6678 22.6698 21.4691 22.5231 21.3226L17.7709 16.5766C17.6241 16.43 17.4251 16.3477 17.2177 16.3477C17.0102 16.3477 16.8109 16.4297 16.6642 16.5762C16.5175 16.7227 16.4354 16.9217 16.4354 17.1289C16.4354 17.3361 16.5178 17.5349 16.6645 17.6814L21.4164 22.4271Z" fill="#B6B6B6"/>
<path d="M16.6642 16.5762C15.6352 17.6038 14.3017 18.1671 14.3017 18.1671C12.9217 18.75 11.4093 18.75 11.4093 18.75C9.89682 18.75 8.51683 18.1671 8.51683 18.1671C7.18333 17.6038 6.15439 16.5762 6.15439 16.5762C5.12545 15.5486 4.56143 14.2168 4.56143 14.2168C3.97774 12.8386 3.97774 11.3281 3.97774 11.3281C3.97774 9.81763 4.56143 8.43944 4.56143 8.43944C5.12545 7.10767 6.15439 6.08007 6.15439 6.08007C7.18333 5.05247 8.51683 4.48918 8.51683 4.48918C9.89682 3.90625 11.4093 3.90625 11.4093 3.90625C12.9217 3.90625 14.3017 4.48918 14.3017 4.48918C15.6352 5.05247 16.6642 6.08007 16.6642 6.08007C17.6931 7.10767 18.2571 8.43944 18.2571 8.43944C18.8408 9.81763 18.8408 11.3281 18.8408 11.3281C18.8408 12.8386 18.2571 14.2168 18.2571 14.2168C17.6931 15.5486 16.6642 16.5762 16.6642 16.5762ZM16.6642 16.5762C16.8109 16.4297 17.0102 16.3477 17.2177 16.3477C17.4251 16.3477 17.6241 16.43 17.7709 16.5766L22.5231 21.3226C22.6698 21.4691 22.7522 21.6678 22.7522 21.875C22.7522 22.0822 22.6698 22.281 22.5231 22.4275C22.3764 22.574 22.1774 22.6563 21.9699 22.6563C21.7625 22.6563 21.5631 22.5736 21.4164 22.4271L16.6645 17.6814C16.5178 17.5349 16.4354 17.3361 16.4354 17.1289C16.4354 16.9217 16.5175 16.7227 16.6642 16.5762ZM11.4093 2.34375C11.4093 2.34375 13.239 2.34375 14.9112 3.05011C14.9112 3.05011 16.5258 3.73212 17.7705 4.97521C17.7705 4.97521 19.0152 6.21831 19.6981 7.83076C19.6981 7.83076 20.4054 9.50078 20.4054 11.3281C20.4054 11.3281 20.4054 13.1555 19.6981 14.8255C19.6981 14.8255 19.0152 16.4379 17.7705 17.681C17.7705 17.681 16.5258 18.9241 14.9112 19.6061C14.9112 19.6061 13.239 20.3125 11.4093 20.3125C11.4093 20.3125 9.57956 20.3125 7.90736 19.6061C7.90736 19.6061 6.29281 18.9241 5.0481 17.681C5.0481 17.681 3.80338 16.4379 3.12049 14.8255C3.12049 14.8255 2.41321 13.1555 2.41321 11.3281C2.41321 11.3281 2.41321 9.50078 3.12048 7.83076C3.12048 7.83076 3.80338 6.21831 5.0481 4.97521C5.0481 4.97521 6.29281 3.73212 7.90736 3.05011C7.90736 3.05011 9.57955 2.34375 11.4093 2.34375Z" stroke="#B6B6B6" stroke-opacity="0.780392"/>
</svg>
