<svg width="27" height="25" viewBox="0 0 27 25" fill="none" xmlns="http://www.w3.org/2000/svg">
<g clip-path="url(#clip0_127_156)">
<g clip-path="url(#clip1_127_156)">
<g clip-path="url(#clip2_127_156)">
<mask id="mask0_127_156" style="mask-type:luminance" maskUnits="userSpaceOnUse" x="1" y="0" width="25" height="25">
<path d="M25.4178 0.366516H1.41785V24.3665H25.4178V0.366516Z" fill="white"/>
</mask>
<g mask="url(#mask0_127_156)">
<path d="M25.4178 3.36652H5.65985L5.61785 3.01552C5.5319 2.28593 5.18124 1.61325 4.63234 1.12499C4.08345 0.636739 3.37448 0.366858 2.63985 0.366516H1.41785V2.36652H2.63985C2.88478 2.36655 3.12119 2.45647 3.30422 2.61923C3.48726 2.78199 3.60419 3.00626 3.63285 3.24952L5.21785 16.7175C5.3038 17.4471 5.65447 18.1198 6.20336 18.608C6.75226 19.0963 7.46122 19.3662 8.19585 19.3665H21.4178V17.3665H8.19585C7.95076 17.3665 7.71423 17.2764 7.53118 17.1134C7.34812 16.9505 7.23128 16.7259 7.20285 16.4825L7.07185 15.3665H23.2538L25.4178 3.36652ZM21.5818 13.3665H6.83685L5.89585 5.36652H23.0248L21.5818 13.3665Z" fill="#253D4E"/>
<path d="M8.41785 24.3665C9.52242 24.3665 10.4178 23.4711 10.4178 22.3665C10.4178 21.2619 9.52242 20.3665 8.41785 20.3665C7.31328 20.3665 6.41785 21.2619 6.41785 22.3665C6.41785 23.4711 7.31328 24.3665 8.41785 24.3665Z" fill="#253D4E"/>
<path d="M18.4178 24.3665C19.5224 24.3665 20.4178 23.4711 20.4178 22.3665C20.4178 21.2619 19.5224 20.3665 18.4178 20.3665C17.3133 20.3665 16.4178 21.2619 16.4178 22.3665C16.4178 23.4711 17.3133 24.3665 18.4178 24.3665Z" fill="#253D4E"/>
</g>
</g>
</g>
</g>
<defs>
<clipPath id="clip0_127_156">
<rect width="25.2965" height="25" fill="white" transform="translate(0.923706)"/>
</clipPath>
<clipPath id="clip1_127_156">
<rect width="25" height="25" fill="white" transform="translate(0.923706)"/>
</clipPath>
<clipPath id="clip2_127_156">
<rect width="25" height="25" fill="white" transform="translate(0.923706)"/>
</clipPath>
</defs>
</svg>
