<svg width="20" height="22" viewBox="0 0 20 22" fill="none" xmlns="http://www.w3.org/2000/svg">
<g clip-path="url(#clip0_127_183)">
<mask id="mask0_127_183" style="mask-type:luminance" maskUnits="userSpaceOnUse" x="0" y="0" width="20" height="21">
<path d="M20 0.767151H0V20.7672H20V0.767151Z" fill="white"/>
</mask>
<g mask="url(#mask0_127_183)">
<path d="M13.6667 4.16049C12.6667 3.31299 11.6367 2.43382 10.5942 1.39466L10 0.804657L9.41668 1.39549C7.54001 3.27716 6.65334 6.16632 6.26834 7.89966C5.97365 7.44291 5.75498 6.9414 5.62084 6.41466L5.26834 5.05382L4.24334 6.01716C2.44751 7.70299 1.25001 9.37549 1.25001 12.0538C1.23324 13.9857 1.86244 15.8678 3.03769 17.4012C4.21293 18.9345 5.86682 20.0313 7.73668 20.5172C8.30007 20.6542 8.8751 20.7379 9.45418 20.7672C9.63523 20.7901 9.81751 20.802 10 20.803C10.0958 20.803 10.1892 20.7947 10.2825 20.7888C12.5526 20.7205 14.7068 19.7703 16.2877 18.1397C17.8686 16.5091 18.7519 14.3266 18.75 12.0555C18.75 8.47716 16.3942 6.47716 13.6667 4.16049ZM10.1667 19.1222C10.0833 19.1222 10 19.1305 9.91167 19.1297C9.16161 19.1067 8.44983 18.7931 7.92672 18.2551C7.40362 17.7171 7.11015 16.9967 7.10834 16.2463C7.10834 15.1897 7.67501 14.663 8.95751 13.5713C9.28084 13.2963 9.63251 12.9972 10.0025 12.6547C10.3267 12.9488 10.6417 13.2155 10.9325 13.463C12.2208 14.5563 12.8933 15.1772 12.8933 16.2438C12.8919 16.9809 12.6088 17.6896 12.1019 18.2247C11.5949 18.7598 10.9026 19.0809 10.1667 19.1222ZM14.35 17.6463L14.3333 17.658C14.4829 17.2023 14.5594 16.7259 14.56 16.2463C14.56 14.3588 13.3217 13.3072 12.0117 12.1947C11.5475 11.8013 11.0683 11.3947 10.59 10.9163L10 10.3272L9.41084 10.9163C8.87084 11.4555 8.34251 11.9055 7.87667 12.3022C6.57001 13.4138 5.44084 14.3747 5.44084 16.2463C5.44262 16.7465 5.52709 17.2429 5.69084 17.7155C4.82339 17.0494 4.12165 16.1918 3.64042 15.2097C3.15919 14.2276 2.91149 13.1475 2.91668 12.0538C2.90297 10.5915 3.46896 9.18326 4.49084 8.13716C4.66686 8.49426 4.87553 8.83432 5.11418 9.15299C5.28848 9.38819 5.52779 9.56725 5.80262 9.66809C6.07745 9.76893 6.37578 9.78714 6.66084 9.72049C6.95083 9.65593 7.21609 9.50921 7.4249 9.29789C7.63372 9.08656 7.77725 8.81956 7.83834 8.52882C8.18727 6.61353 8.94194 4.79505 10.0517 3.19549C10.9308 4.02882 11.8017 4.76632 12.5875 5.43382C15.1975 7.65049 17.0875 9.25216 17.0875 12.0588C17.0895 13.1377 16.8437 14.2026 16.3689 15.1714C15.8941 16.1402 15.2039 16.9869 14.35 17.6463Z" fill="#66B158"/>
</g>
</g>
<defs>
<clipPath id="clip0_127_183">
<rect width="20" height="21" fill="white" transform="translate(0 0.25)"/>
</clipPath>
</defs>
</svg>
