<svg width="26" height="25" viewBox="0 0 26 25" fill="none" xmlns="http://www.w3.org/2000/svg">
<path fill-rule="evenodd" clip-rule="evenodd" d="M11.9015 2.34375C11.9015 2.34375 13.7312 2.34375 15.4034 3.05011C15.4034 3.05011 17.0179 3.73212 18.2627 4.97521C18.2627 4.97521 19.5074 6.21831 20.1903 7.83076C20.1903 7.83076 20.8975 9.50078 20.8975 11.3281C20.8975 11.3281 20.8975 13.1555 20.1903 14.8255C20.1903 14.8255 19.5074 16.4379 18.2627 17.681C18.2627 17.681 17.0179 18.9241 15.4034 19.6061C15.4034 19.6061 13.7312 20.3125 11.9015 20.3125C11.9015 20.3125 10.0717 20.3125 8.39955 19.6061C8.39955 19.6061 6.785 18.9241 5.54028 17.681C5.54028 17.681 4.29557 16.4379 3.61267 14.8255C3.61267 14.8255 2.9054 13.1555 2.9054 11.3281C2.9054 11.3281 2.9054 9.50078 3.61267 7.83076C3.61267 7.83076 4.29557 6.21831 5.54028 4.97521C5.54028 4.97521 6.785 3.73212 8.39955 3.05011C8.39955 3.05011 10.0717 2.34375 11.9015 2.34375ZM11.9015 3.90625C11.9015 3.90625 10.389 3.90625 9.00902 4.48918C9.00902 4.48918 7.67551 5.05247 6.64658 6.08007C6.64658 6.08007 5.61764 7.10767 5.05362 8.43944C5.05362 8.43944 4.46993 9.81763 4.46993 11.3281C4.46993 11.3281 4.46993 12.8386 5.05362 14.2168C5.05362 14.2168 5.61764 15.5486 6.64658 16.5762C6.64658 16.5762 7.67551 17.6038 9.00902 18.1671C9.00902 18.1671 10.389 18.75 11.9015 18.75C11.9015 18.75 13.4139 18.75 14.7939 18.1671C14.7939 18.1671 16.1274 17.6038 17.1564 16.5762C17.1564 16.5762 18.1853 15.5486 18.7493 14.2168C18.7493 14.2168 19.333 12.8386 19.333 11.3281C19.333 11.3281 19.333 9.81763 18.7493 8.43944C18.7493 8.43944 18.1853 7.10767 17.1564 6.08007C17.1564 6.08007 16.1274 5.05247 14.7939 4.48918C14.7939 4.48918 13.4139 3.90625 11.9015 3.90625Z" fill="#64AC5C"/>
<path d="M21.9086 22.4271C22.0553 22.5736 22.2546 22.6563 22.4621 22.6563C22.6696 22.6563 22.8686 22.574 23.0153 22.4275C23.162 22.281 23.2444 22.0822 23.2444 21.875C23.2444 21.6678 23.162 21.4691 23.0153 21.3226L18.2631 16.5766C18.1163 16.43 17.9173 16.3477 17.7098 16.3477C17.5024 16.3477 17.3031 16.4297 17.1564 16.5762C17.0097 16.7227 16.9276 16.9217 16.9276 17.1289C16.9276 17.3361 17.01 17.5349 17.1567 17.6814L21.9086 22.4271Z" fill="#64AC5C"/>
<path d="M17.1564 16.5762C16.1274 17.6038 14.7939 18.1671 14.7939 18.1671C13.4139 18.75 11.9015 18.75 11.9015 18.75C10.389 18.75 9.00902 18.1671 9.00902 18.1671C7.67551 17.6038 6.64658 16.5762 6.64658 16.5762C5.61764 15.5486 5.05362 14.2168 5.05362 14.2168C4.46993 12.8386 4.46993 11.3281 4.46993 11.3281C4.46993 9.81763 5.05362 8.43944 5.05362 8.43944C5.61764 7.10767 6.64658 6.08007 6.64658 6.08007C7.67551 5.05247 9.00902 4.48918 9.00902 4.48918C10.389 3.90625 11.9015 3.90625 11.9015 3.90625C13.4139 3.90625 14.7939 4.48918 14.7939 4.48918C16.1274 5.05247 17.1564 6.08007 17.1564 6.08007C18.1853 7.10767 18.7493 8.43944 18.7493 8.43944C19.333 9.81763 19.333 11.3281 19.333 11.3281C19.333 12.8386 18.7493 14.2168 18.7493 14.2168C18.1853 15.5486 17.1564 16.5762 17.1564 16.5762ZM17.1564 16.5762C17.3031 16.4297 17.5024 16.3477 17.7098 16.3477C17.9173 16.3477 18.1163 16.43 18.2631 16.5766L23.0153 21.3226C23.162 21.4691 23.2444 21.6678 23.2444 21.875C23.2444 22.0822 23.162 22.281 23.0153 22.4275C22.8686 22.574 22.6696 22.6563 22.4621 22.6563C22.2546 22.6563 22.0553 22.5736 21.9086 22.4271L17.1567 17.6814C17.01 17.5349 16.9276 17.3361 16.9276 17.1289C16.9276 16.9217 17.0097 16.7227 17.1564 16.5762ZM11.9015 2.34375C11.9015 2.34375 13.7312 2.34375 15.4034 3.05011C15.4034 3.05011 17.0179 3.73212 18.2627 4.97521C18.2627 4.97521 19.5074 6.21831 20.1903 7.83076C20.1903 7.83076 20.8975 9.50078 20.8975 11.3281C20.8975 11.3281 20.8975 13.1555 20.1903 14.8255C20.1903 14.8255 19.5074 16.4379 18.2627 17.681C18.2627 17.681 17.0179 18.9241 15.4034 19.6061C15.4034 19.6061 13.7312 20.3125 11.9015 20.3125C11.9015 20.3125 10.0717 20.3125 8.39955 19.6061C8.39955 19.6061 6.785 18.9241 5.54028 17.681C5.54028 17.681 4.29557 16.4379 3.61267 14.8255C3.61267 14.8255 2.9054 13.1555 2.9054 11.3281C2.9054 11.3281 2.9054 9.50078 3.61267 7.83076C3.61267 7.83076 4.29557 6.21831 5.54028 4.97521C5.54028 4.97521 6.785 3.73212 8.39955 3.05011C8.39955 3.05011 10.0717 2.34375 11.9015 2.34375Z" stroke="#64AC5C" stroke-opacity="0.780392"/>
</svg>
