<svg width="36" height="39" viewBox="0 0 36 39" fill="none" xmlns="http://www.w3.org/2000/svg">
<g clip-path="url(#clip0_127_196)">
<path d="M31.5 20.173V18.037C31.5 14.4566 30.0777 11.0228 27.546 8.49103C25.0142 5.95929 21.5805 4.53697 18 4.53697C14.4196 4.53697 10.9858 5.95929 8.45411 8.49103C5.92236 11.0228 4.50005 14.4566 4.50005 18.037V20.173C2.92679 20.8657 1.63925 22.0779 0.85298 23.6066C0.0667122 25.1353 -0.170561 26.8876 0.180884 28.5704C0.532329 30.2531 1.45116 31.764 2.78355 32.8502C4.11595 33.9364 5.78103 34.5319 7.50005 34.537H10.5V19.537H7.50005V18.037C7.50005 15.2522 8.60629 12.5815 10.5754 10.6124C12.5446 8.64322 15.2153 7.53697 18 7.53697C20.7848 7.53697 23.4555 8.64322 25.4247 10.6124C27.3938 12.5815 28.5 15.2522 28.5 18.037V19.537H25.5V31.537H19.5V34.537H28.5C30.2191 34.5319 31.8841 33.9364 33.2165 32.8502C34.5489 31.764 35.4678 30.2531 35.8192 28.5704C36.1707 26.8876 35.9334 25.1353 35.1471 23.6066C34.3608 22.0779 33.0733 20.8657 31.5 20.173ZM7.50005 31.537C6.30657 31.537 5.16198 31.0629 4.31807 30.219C3.47415 29.3751 3.00005 28.2305 3.00005 27.037C3.00005 25.8435 3.47415 24.6989 4.31807 23.855C5.16198 23.0111 6.30657 22.537 7.50005 22.537V31.537ZM28.5 31.537V22.537C29.6935 22.537 30.8381 23.0111 31.682 23.855C32.5259 24.6989 33 25.8435 33 27.037C33 28.2305 32.5259 29.3751 31.682 30.219C30.8381 31.0629 29.6935 31.537 28.5 31.537Z" fill="#253D4E"/>
</g>
<defs>
<clipPath id="clip0_127_196">
<rect width="36" height="38.4092" fill="white" transform="translate(0 0.536972)"/>
</clipPath>
</defs>
</svg>
