<svg width="14" height="35" viewBox="0 0 14 35" fill="none" xmlns="http://www.w3.org/2000/svg">
<g clip-path="url(#clip0_127_138)">
<path d="M5.88 24.5L5.46 24.1733C4.43333 23.3022 3.45333 22.3222 2.52 21.2333C0.84 19.2733 0 17.64 0 16.3333C0 15.2756 0.264444 14.2956 0.793333 13.3933C1.32222 12.4911 2.03778 11.7756 2.94 11.2467C3.84222 10.7178 4.82222 10.4533 5.88 10.4533C6.93778 10.4533 7.91778 10.7178 8.82 11.2467C9.72222 11.7756 10.4378 12.4911 10.9667 13.3933C11.4956 14.2956 11.76 15.2756 11.76 16.3333C11.76 17.64 10.92 19.2733 9.24 21.2333C8.33778 22.2911 7.35778 23.2711 6.3 24.1733L5.88 24.5ZM5.88 11.7133C5.04 11.7133 4.27 11.9233 3.57 12.3433C2.87 12.7633 2.31 13.3233 1.89 14.0233C1.47 14.7233 1.26 15.5011 1.26 16.3567C1.26 17.2122 1.83556 18.3556 2.98667 19.7867C3.79556 20.8133 4.76 21.8244 5.88 22.82C7 21.8244 7.96444 20.8133 8.77333 19.7867C9.92444 18.3556 10.5 17.2122 10.5 16.3567C10.5 15.5011 10.29 14.7233 9.87 14.0233C9.45 13.3233 8.89 12.7633 8.19 12.3433C7.49 11.9233 6.72 11.7133 5.88 11.7133ZM5.88 18.6667C5.22667 18.6667 4.67444 18.4411 4.22333 17.99C3.77222 17.5389 3.54667 16.9867 3.54667 16.3333C3.54667 15.68 3.77222 15.1278 4.22333 14.6767C4.67444 14.2256 5.22667 14 5.88 14C6.53333 14 7.08556 14.2256 7.53667 14.6767C7.98778 15.1278 8.21333 15.68 8.21333 16.3333C8.21333 16.9867 7.98778 17.5389 7.53667 17.99C7.08556 18.4411 6.53333 18.6667 5.88 18.6667ZM5.88 15.1667C5.56889 15.1667 5.29667 15.2833 5.06333 15.5167C4.83 15.75 4.71333 16.0222 4.71333 16.3333C4.71333 16.6444 4.83 16.9167 5.06333 17.15C5.29667 17.3833 5.56889 17.5 5.88 17.5C6.19111 17.5 6.46333 17.3833 6.69667 17.15C6.93 16.9167 7.04667 16.6444 7.04667 16.3333C7.04667 16.0222 6.93 15.75 6.69667 15.5167C6.46333 15.2833 6.19111 15.1667 5.88 15.1667Z" fill="#B6B6B6"/>
</g>
<defs>
<clipPath id="clip0_127_138">
<rect width="14" height="35" fill="white" transform="matrix(1 0 0 -1 0 35)"/>
</clipPath>
</defs>
</svg>
