<svg width="26" height="25" viewBox="0 0 26 25" fill="none" xmlns="http://www.w3.org/2000/svg">
<g clip-path="url(#clip0_127_144)">
<g clip-path="url(#clip1_127_144)">
<g clip-path="url(#clip2_127_144)">
<mask id="mask0_127_144" style="mask-type:luminance" maskUnits="userSpaceOnUse" x="1" y="0" width="25" height="25">
<path d="M25.4619 0.366516H1.46191V24.3665H25.4619V0.366516Z" fill="white"/>
</mask>
<g mask="url(#mask0_127_144)">
<path d="M18.9618 1.28351C17.8358 1.30102 16.7343 1.61536 15.7686 2.19478C14.8029 2.7742 14.0072 3.59818 13.4618 4.58351C12.9165 3.59818 12.1208 2.7742 11.1551 2.19478C10.1894 1.61536 9.08792 1.30102 7.96187 1.28351C6.16681 1.3615 4.47557 2.14676 3.25765 3.46774C2.03973 4.78872 1.39412 6.53803 1.46187 8.33351C1.46187 15.1085 12.4178 22.9335 12.8838 23.2655L13.4618 23.6745L14.0398 23.2655C14.5058 22.9355 25.4618 15.1085 25.4618 8.33351C25.5296 6.53803 24.884 4.78872 23.6661 3.46774C22.4481 2.14676 20.7569 1.3615 18.9618 1.28351ZM13.4618 21.2125C10.2089 18.7825 3.46187 12.8125 3.46187 8.33351C3.39351 7.06822 3.82824 5.82724 4.67123 4.88121C5.51423 3.93518 6.6971 3.36086 7.96187 3.28351C9.22664 3.36086 10.4095 3.93518 11.2525 4.88121C12.0955 5.82724 12.5302 7.06822 12.4618 8.33351H14.4618C14.3935 7.06822 14.8282 5.82724 15.6712 4.88121C16.5142 3.93518 17.6971 3.36086 18.9618 3.28351C20.2266 3.36086 21.4095 3.93518 22.2525 4.88121C23.0955 5.82724 23.5302 7.06822 23.4618 8.33351C23.4618 12.8145 16.7148 18.7825 13.4618 21.2125Z" fill="#253D4E"/>
</g>
</g>
</g>
</g>
<defs>
<clipPath id="clip0_127_144">
<rect width="25.2965" height="25" fill="white" transform="translate(0.686523)"/>
</clipPath>
<clipPath id="clip1_127_144">
<rect width="25" height="25" fill="white" transform="translate(0.686523)"/>
</clipPath>
<clipPath id="clip2_127_144">
<rect width="25" height="25" fill="white" transform="translate(0.686523)"/>
</clipPath>
</defs>
</svg>
