<svg width="15" height="15" viewBox="0 0 15 15" fill="none" xmlns="http://www.w3.org/2000/svg">
<path d="M7.4939 1.24998C4.0439 1.24998 1.25015 4.04998 1.25015 7.49998C1.25015 10.95 4.0439 13.75 7.4939 13.75C10.9502 13.75 13.7502 10.95 13.7502 7.49998C13.7502 4.04998 10.9502 1.24998 7.4939 1.24998ZM10.0002 9.99998C9.94233 10.0579 9.87365 10.1039 9.79804 10.1353C9.72243 10.1666 9.64138 10.1828 9.55953 10.1828C9.47767 10.1828 9.39662 10.1666 9.32101 10.1353C9.2454 10.1039 9.17672 10.0579 9.1189 9.99998L7.06265 7.94373C7.0036 7.88585 6.95662 7.81682 6.92443 7.74065C6.89225 7.66448 6.8755 7.58268 6.87515 7.49998V4.99998C6.87515 4.65623 7.1564 4.37498 7.50015 4.37498C7.8439 4.37498 8.12515 4.65623 8.12515 4.99998V7.24373L10.0002 9.11873C10.2439 9.36248 10.2439 9.75624 10.0002 9.99998Z" fill="#66B158"/>
</svg>
