<svg width="38" height="32" viewBox="0 0 38 32" fill="none" xmlns="http://www.w3.org/2000/svg">
<g clip-path="url(#clip0_233_205)">
<g clip-path="url(#clip1_233_205)">
<g clip-path="url(#clip2_233_205)">
<mask id="mask0_233_205" style="mask-type:luminance" maskUnits="userSpaceOnUse" x="1" y="7" width="25" height="25">
<path d="M25.4178 7.36652H1.41785V31.3665H25.4178V7.36652Z" fill="white"/>
</mask>
<g mask="url(#mask0_233_205)">
<path d="M25.4178 10.3665H5.65985L5.61785 10.0155C5.5319 9.28593 5.18124 8.61325 4.63234 8.12499C4.08345 7.63674 3.37448 7.36686 2.63985 7.36652H1.41785V9.36652H2.63985C2.88478 9.36655 3.12119 9.45647 3.30422 9.61923C3.48726 9.78199 3.60419 10.0063 3.63285 10.2495L5.21785 23.7175C5.3038 24.4471 5.65447 25.1198 6.20336 25.608C6.75226 26.0963 7.46122 26.3662 8.19585 26.3665H21.4178V24.3665H8.19585C7.95076 24.3665 7.71423 24.2764 7.53118 24.1134C7.34812 23.9505 7.23128 23.7259 7.20285 23.4825L7.07185 22.3665H23.2538L25.4178 10.3665ZM21.5818 20.3665H6.83685L5.89585 12.3665H23.0248L21.5818 20.3665Z" fill="#253D4E"/>
<path d="M8.41785 31.3665C9.52242 31.3665 10.4178 30.4711 10.4178 29.3665C10.4178 28.2619 9.52242 27.3665 8.41785 27.3665C7.31328 27.3665 6.41785 28.2619 6.41785 29.3665C6.41785 30.4711 7.31328 31.3665 8.41785 31.3665Z" fill="#253D4E"/>
<path d="M18.4178 31.3665C19.5224 31.3665 20.4178 30.4711 20.4178 29.3665C20.4178 28.2619 19.5224 27.3665 18.4178 27.3665C17.3133 27.3665 16.4178 28.2619 16.4178 29.3665C16.4178 30.4711 17.3133 31.3665 18.4178 31.3665Z" fill="#253D4E"/>
</g>
</g>
</g>
</g>
<rect x="17.1136" width="20.2372" height="20" rx="10" fill="#66B158"/>
<defs>
<clipPath id="clip0_233_205">
<rect width="25.2965" height="25" fill="white" transform="translate(0.923706 7)"/>
</clipPath>
<clipPath id="clip1_233_205">
<rect width="25" height="25" fill="white" transform="translate(0.923706 7)"/>
</clipPath>
<clipPath id="clip2_233_205">
<rect width="25" height="25" fill="white" transform="translate(0.923706 7)"/>
</clipPath>
</defs>
</svg>
