<svg width="108" height="98" viewBox="0 0 108 98" fill="none" xmlns="http://www.w3.org/2000/svg">
<path fill-rule="evenodd" clip-rule="evenodd" d="M75.2014 17.3158C73.6726 15.5531 72.1439 14.7483 69.8126 14.7483H18.1993C16.9763 14.7483 15.9826 13.8286 15.868 12.5985L15.1418 4.01442C15.0272 2.71149 14.0717 1.64232 12.7723 1.40856L3.65734 0.0328136C2.0904 -0.200948 0.599901 0.837566 0.332375 2.40492C0.0648493 3.93778 1.13495 5.43232 2.66367 5.70057C6.06261 6.28741 8.63647 9.09552 8.92576 12.5326L11.9506 48.4713C12.371 53.5297 16.575 57.4347 21.658 57.4347H63.3538C68.2075 57.4347 72.335 53.8746 73.0229 49.0423L76.6536 23.9033C76.9976 21.6079 76.7301 19.0786 75.2014 17.3158Z" fill="url(#paint0_linear_127_278)"/>
<g filter="url(#filter0_f_127_278)">
<rect x="18.4669" y="25" width="45.8344" height="27" rx="5" fill="#2AA42B" fill-opacity="0.5"/>
</g>
<g filter="url(#filter1_b_127_278)">
<mask id="path-3-outside-1_127_278" maskUnits="userSpaceOnUse" x="21.7294" y="14.168" width="87" height="84" fill="black">
<rect fill="white" x="21.7294" y="14.168" width="87" height="84"/>
<path fill-rule="evenodd" clip-rule="evenodd" d="M31.1321 31.2052C28.597 31.2052 26.9347 32.0803 25.2724 33.9972C23.61 35.914 23.3191 38.6643 23.6932 41.1604L27.6412 68.4964C28.3892 73.7511 32.8775 77.6223 38.1554 77.6223H83.4953C89.0225 77.6223 93.5939 73.3761 94.0511 67.8755L97.8744 22.4502L104.15 21.3668C105.812 21.0751 106.976 19.4499 106.685 17.7831C106.394 16.0787 104.773 14.9495 103.069 15.2037L93.1576 16.6996C91.7446 16.9538 90.7056 18.1164 90.581 19.5332L89.7914 28.8675C89.6667 30.2051 88.5862 31.2052 87.2563 31.2052H31.1321ZM84.1616 84.209C87.6525 84.209 90.4784 87.0426 90.4784 90.5429C90.4784 94.0016 87.6525 96.8352 84.1616 96.8352C80.7123 96.8352 77.8863 94.0016 77.8863 90.5429C77.8863 87.0426 80.7123 84.209 84.1616 84.209ZM37.4091 84.209C40.9 84.209 43.7259 87.0426 43.7259 90.5429C43.7259 94.0016 40.9 96.8352 37.4091 96.8352C33.9598 96.8352 31.1338 94.0016 31.1338 90.5429C31.1338 87.0426 33.9598 84.209 37.4091 84.209Z"/>
</mask>
<path fill-rule="evenodd" clip-rule="evenodd" d="M31.1321 31.2052C28.597 31.2052 26.9347 32.0803 25.2724 33.9972C23.61 35.914 23.3191 38.6643 23.6932 41.1604L27.6412 68.4964C28.3892 73.7511 32.8775 77.6223 38.1554 77.6223H83.4953C89.0225 77.6223 93.5939 73.3761 94.0511 67.8755L97.8744 22.4502L104.15 21.3668C105.812 21.0751 106.976 19.4499 106.685 17.7831C106.394 16.0787 104.773 14.9495 103.069 15.2037L93.1576 16.6996C91.7446 16.9538 90.7056 18.1164 90.581 19.5332L89.7914 28.8675C89.6667 30.2051 88.5862 31.2052 87.2563 31.2052H31.1321ZM84.1616 84.209C87.6525 84.209 90.4784 87.0426 90.4784 90.5429C90.4784 94.0016 87.6525 96.8352 84.1616 96.8352C80.7123 96.8352 77.8863 94.0016 77.8863 90.5429C77.8863 87.0426 80.7123 84.209 84.1616 84.209ZM37.4091 84.209C40.9 84.209 43.7259 87.0426 43.7259 90.5429C43.7259 94.0016 40.9 96.8352 37.4091 96.8352C33.9598 96.8352 31.1338 94.0016 31.1338 90.5429C31.1338 87.0426 33.9598 84.209 37.4091 84.209Z" fill="#72DC60" fill-opacity="0.35"/>
<path d="M25.2724 33.9972L24.5169 33.342L25.2724 33.9972ZM23.6932 41.1604L24.6821 41.0122L24.6829 41.0174L23.6932 41.1604ZM27.6412 68.4964L28.6309 68.3535L28.6312 68.3555L27.6412 68.4964ZM94.0511 67.8755L93.0545 67.7927L93.0546 67.7917L94.0511 67.8755ZM97.8744 22.4502L96.8779 22.3663C96.9161 21.9128 97.2557 21.5422 97.7043 21.4648L97.8744 22.4502ZM104.15 21.3668L104.323 22.3517L104.32 22.3522L104.15 21.3668ZM106.685 17.7831L105.7 17.955L105.699 17.9513L106.685 17.7831ZM103.069 15.2037L102.92 14.2148L102.922 14.2146L103.069 15.2037ZM93.1576 16.6996L92.9805 15.7154C92.9898 15.7138 92.999 15.7122 93.0083 15.7108L93.1576 16.6996ZM90.581 19.5332L89.5845 19.449L89.5848 19.4456L90.581 19.5332ZM89.7914 28.8675L90.7878 28.9518L90.787 28.9603L89.7914 28.8675ZM24.5169 33.342C25.4062 32.3165 26.34 31.5182 27.4367 30.9835C28.5389 30.4462 29.7438 30.2052 31.1321 30.2052V32.2052C29.9853 32.2052 29.0915 32.4018 28.3131 32.7813C27.5294 33.1634 26.8008 33.761 26.0279 34.6523L24.5169 33.342ZM22.7042 41.3086C22.31 38.6778 22.5802 35.5752 24.5169 33.342L26.0279 34.6523C24.6399 36.2529 24.3283 38.6508 24.6821 41.0122L22.7042 41.3086ZM26.6515 68.6394L22.7034 41.3033L24.6829 41.0174L28.6309 68.3535L26.6515 68.6394ZM38.1554 78.6223C32.3811 78.6223 27.4696 74.3863 26.6512 68.6374L28.6312 68.3555C29.3089 73.1159 33.3739 76.6223 38.1554 76.6223V78.6223ZM83.4953 78.6223H38.1554V76.6223H83.4953V78.6223ZM95.0476 67.9583C94.5478 73.9727 89.5473 78.6223 83.4953 78.6223V76.6223C88.4978 76.6223 92.6401 72.7794 93.0545 67.7927L95.0476 67.9583ZM98.8709 22.5341L95.0475 67.9594L93.0546 67.7917L96.8779 22.3663L98.8709 22.5341ZM104.32 22.3522L98.0445 23.4356L97.7043 21.4648L103.98 20.3813L104.32 22.3522ZM107.67 17.6111C108.057 19.8315 106.519 21.9664 104.323 22.3517L103.977 20.3818C105.105 20.1838 105.894 19.0683 105.7 17.955L107.67 17.6111ZM102.922 14.2146C105.144 13.883 107.285 15.3548 107.67 17.6148L105.699 17.9513C105.503 16.8027 104.402 16.0159 103.217 16.1927L102.922 14.2146ZM93.0083 15.7108L102.92 14.2148L103.218 16.1925L93.3068 17.6884L93.0083 15.7108ZM89.5848 19.4456C89.7483 17.5875 91.1155 16.0509 92.9805 15.7154L93.3346 17.6838C92.3736 17.8567 91.663 18.6453 91.5771 19.6209L89.5848 19.4456ZM88.7949 28.7832L89.5845 19.449L91.5774 19.6175L90.7878 28.9518L88.7949 28.7832ZM87.2563 30.2052C88.0581 30.2052 88.7178 29.61 88.7957 28.7747L90.787 28.9603C90.6155 30.8002 89.1143 32.2052 87.2563 32.2052V30.2052ZM31.1321 30.2052H87.2563V32.2052H31.1321V30.2052ZM89.4784 90.5429C89.4784 87.5923 87.0977 85.209 84.1616 85.209V83.209C88.2073 83.209 91.4784 86.4929 91.4784 90.5429H89.4784ZM84.1616 95.8352C87.1019 95.8352 89.4784 93.4476 89.4784 90.5429H91.4784C91.4784 94.5556 88.203 97.8352 84.1616 97.8352V95.8352ZM78.8863 90.5429C78.8863 93.4519 81.2671 95.8352 84.1616 95.8352V97.8352C80.1574 97.8352 76.8863 94.5513 76.8863 90.5429H78.8863ZM84.1616 85.209C81.2714 85.209 78.8863 87.588 78.8863 90.5429H76.8863C76.8863 86.4972 80.1532 83.209 84.1616 83.209V85.209ZM42.7259 90.5429C42.7259 87.5923 40.3451 85.209 37.4091 85.209V83.209C41.4548 83.209 44.7259 86.4929 44.7259 90.5429H42.7259ZM37.4091 95.8352C40.3494 95.8352 42.7259 93.4476 42.7259 90.5429H44.7259C44.7259 94.5556 41.4505 97.8352 37.4091 97.8352V95.8352ZM32.1338 90.5429C32.1338 93.4519 34.5146 95.8352 37.4091 95.8352V97.8352C33.4049 97.8352 30.1338 94.5513 30.1338 90.5429H32.1338ZM37.4091 85.209C34.5189 85.209 32.1338 87.588 32.1338 90.5429H30.1338C30.1338 86.4972 33.4006 83.209 37.4091 83.209V85.209Z" fill="url(#paint1_linear_127_278)" mask="url(#path-3-outside-1_127_278)"/>
</g>
<g filter="url(#filter2_bd_127_278)">
<mask id="path-5-inside-2_127_278" fill="white">
<path fill-rule="evenodd" clip-rule="evenodd" d="M44.8043 52.8678H56.3159C58.0614 52.8678 59.4328 51.451 59.4328 49.7425C59.4328 47.9923 58.0614 46.6172 56.3159 46.6172H44.8043C43.0589 46.6172 41.6875 47.9923 41.6875 49.7425C41.6875 51.451 43.0589 52.8678 44.8043 52.8678Z"/>
</mask>
<path fill-rule="evenodd" clip-rule="evenodd" d="M44.8043 52.8678H56.3159C58.0614 52.8678 59.4328 51.451 59.4328 49.7425C59.4328 47.9923 58.0614 46.6172 56.3159 46.6172H44.8043C43.0589 46.6172 41.6875 47.9923 41.6875 49.7425C41.6875 51.451 43.0589 52.8678 44.8043 52.8678Z" fill="url(#paint2_linear_127_278)"/>
<path d="M44.8043 52.6678H56.3159V53.0678H44.8043V52.6678ZM56.3159 52.6678C57.9487 52.6678 59.2328 51.3428 59.2328 49.7425H59.6328C59.6328 51.5592 58.1741 53.0678 56.3159 53.0678V52.6678ZM59.2328 49.7425C59.2328 48.1023 57.9504 46.8172 56.3159 46.8172V46.4172C58.1723 46.4172 59.6328 47.8824 59.6328 49.7425H59.2328ZM56.3159 46.8172H44.8043V46.4172H56.3159V46.8172ZM44.8043 46.8172C43.1698 46.8172 41.8875 48.1023 41.8875 49.7425H41.4875C41.4875 47.8824 42.9479 46.4172 44.8043 46.4172V46.8172ZM41.8875 49.7425C41.8875 51.3428 43.1716 52.6678 44.8043 52.6678V53.0678C42.9462 53.0678 41.4875 51.5592 41.4875 49.7425H41.8875Z" fill="url(#paint3_linear_127_278)" fill-opacity="0.5" mask="url(#path-5-inside-2_127_278)"/>
</g>
<defs>
<filter id="filter0_f_127_278" x="4.46695" y="11" width="73.8344" height="55" filterUnits="userSpaceOnUse" color-interpolation-filters="sRGB">
<feFlood flood-opacity="0" result="BackgroundImageFix"/>
<feBlend mode="normal" in="SourceGraphic" in2="BackgroundImageFix" result="shape"/>
<feGaussianBlur stdDeviation="7" result="effect1_foregroundBlur_127_278"/>
</filter>
<filter id="filter1_b_127_278" x="-1.45123" y="-9.83197" width="133.181" height="131.667" filterUnits="userSpaceOnUse" color-interpolation-filters="sRGB">
<feFlood flood-opacity="0" result="BackgroundImageFix"/>
<feGaussianBlur in="BackgroundImageFix" stdDeviation="12"/>
<feComposite in2="SourceAlpha" operator="in" result="effect1_backgroundBlur_127_278"/>
<feBlend mode="normal" in="SourceGraphic" in2="effect1_backgroundBlur_127_278" result="shape"/>
</filter>
<filter id="filter2_bd_127_278" x="26.6875" y="31.6172" width="47.7453" height="36.2506" filterUnits="userSpaceOnUse" color-interpolation-filters="sRGB">
<feFlood flood-opacity="0" result="BackgroundImageFix"/>
<feGaussianBlur in="BackgroundImageFix" stdDeviation="7.5"/>
<feComposite in2="SourceAlpha" operator="in" result="effect1_backgroundBlur_127_278"/>
<feColorMatrix in="SourceAlpha" type="matrix" values="0 0 0 0 0 0 0 0 0 0 0 0 0 0 0 0 0 0 127 0" result="hardAlpha"/>
<feOffset dx="5" dy="5"/>
<feGaussianBlur stdDeviation="5"/>
<feColorMatrix type="matrix" values="0 0 0 0 0.454902 0 0 0 0 0.870588 0 0 0 0 0.376471 0 0 0 0.5 0"/>
<feBlend mode="normal" in2="effect1_backgroundBlur_127_278" result="effect2_dropShadow_127_278"/>
<feBlend mode="normal" in="SourceGraphic" in2="effect2_dropShadow_127_278" result="shape"/>
</filter>
<linearGradient id="paint0_linear_127_278" x1="76.7868" y1="0" x2="39.5135" y2="58.0602" gradientUnits="userSpaceOnUse">
<stop stop-color="#9BF763"/>
<stop offset="1" stop-color="#26AB5B"/>
</linearGradient>
<linearGradient id="paint1_linear_127_278" x1="93.4883" y1="24.6823" x2="41.6028" y2="90.1348" gradientUnits="userSpaceOnUse">
<stop stop-color="white" stop-opacity="0.25"/>
<stop offset="1" stop-color="white" stop-opacity="0"/>
</linearGradient>
<linearGradient id="paint2_linear_127_278" x1="42.9456" y1="47.7459" x2="62.5651" y2="49.562" gradientUnits="userSpaceOnUse">
<stop stop-color="white"/>
<stop offset="1" stop-color="white" stop-opacity="0.2"/>
</linearGradient>
<linearGradient id="paint3_linear_127_278" x1="57.5212" y1="48.714" x2="42.4562" y2="48.9501" gradientUnits="userSpaceOnUse">
<stop stop-color="white"/>
<stop offset="1" stop-color="white" stop-opacity="0"/>
</linearGradient>
</defs>
</svg>
