<svg width="129" height="105" viewBox="0 0 129 105" fill="none" xmlns="http://www.w3.org/2000/svg">
<path d="M62.2225 64.9772C61.707 66.0208 61.7477 67.2485 62.3282 68.259L70.5775 82.1429C71.2756 83.32 71.2072 84.7887 70.4036 85.9013C69.6316 87.0333 68.2654 87.6251 66.8937 87.4319L50.6787 85.3326C50.1131 85.2545 49.5377 85.31 48.9937 85.4877L48.1599 85.7862C47.8864 85.9321 47.637 86.124 47.4301 86.3555L36.4025 98.2475C35.852 98.8211 35.1327 99.2121 34.3414 99.362C32.3946 99.6758 30.5472 98.4071 30.1788 96.5028L27.4026 80.6591C27.1818 79.5096 26.4066 78.538 25.324 78.053L10.2919 71.4576C9.0344 70.9052 8.21822 69.6916 8.19783 68.3403C8.16625 66.9964 8.89452 65.7465 10.0923 65.0952L24.5745 57.4419C25.6937 56.9077 26.4573 55.8471 26.5993 54.6327L28.3045 38.6559C28.3524 38.2965 28.4555 37.9448 28.6172 37.6199L28.8157 37.3093C28.902 37.1004 29.0199 36.911 29.1653 36.7392L29.4558 36.4983L29.9004 36.0995L31.1956 35.6357C32.3961 35.3393 33.6666 35.6544 34.5754 36.4789L46.4121 47.5381C47.2708 48.3497 48.4821 48.6928 49.6482 48.4635L65.7466 45.1664C67.106 44.885 68.5109 45.3744 69.3868 46.4297C70.2393 47.4968 70.3848 48.9505 69.7611 50.1628L62.2225 64.9772Z" fill="url(#paint0_linear_127_293)"/>
<g opacity="0.5" filter="url(#filter0_f_127_293)">
<path d="M48.0532 56.9508C41.0117 56.9508 35.2969 62.5628 35.2969 69.4749C35.2969 76.3894 41.0117 81.9989 48.0532 81.9989C55.1074 81.9989 60.8095 76.3894 60.8095 69.4749C60.8095 62.5628 55.1074 56.9508 48.0532 56.9508Z" fill="#FF3D22"/>
</g>
<g filter="url(#filter1_b_127_293)">
<path d="M99.7834 62.6509C98.4843 63.3872 97.6363 64.7063 97.5135 66.1749L96.1127 86.5438C95.9925 88.2699 94.8549 89.766 93.2029 90.3731C91.5699 91.0228 89.7042 90.6888 88.4024 89.5256L72.8787 75.9701C72.3406 75.4922 71.6954 75.1477 70.9946 74.9538L69.9015 74.6841C69.5081 74.646 69.1066 74.6733 68.7212 74.7719L48.4996 79.5552C47.5047 79.7729 46.4649 79.6805 45.5242 79.2843C43.2498 78.2516 42.2282 75.625 43.2225 73.3652L51.7992 54.7665C52.4011 53.4035 52.291 51.8396 51.5048 50.572L40.4867 33.1179C39.5655 31.657 39.588 29.81 40.547 28.3752C41.4889 26.9403 43.1613 26.1361 44.8931 26.2897L65.6711 28.3801C67.2354 28.6018 68.8077 28.0213 69.838 26.844L83.2226 11.2419C83.5337 10.8976 83.8972 10.5999 84.303 10.3717L84.737 10.184C84.9793 10.0248 85.2407 9.90829 85.5182 9.82939L85.9984 9.77945L86.7551 9.6714L88.4532 10.0903C89.9304 10.619 91.0375 11.8394 91.3947 13.3422L95.8148 33.2525C96.1287 34.7067 97.1531 35.9152 98.5454 36.4902L117.862 44.2913C119.495 44.9468 120.617 46.4446 120.772 48.167C120.894 49.8854 119.993 51.5155 118.457 52.3535L99.7834 62.6509Z" fill="#FFAC95" fill-opacity="0.4"/>
<path d="M96.6125 86.5741L96.6125 86.5746C96.4786 88.4987 95.2117 90.1625 93.3797 90.8386C91.5701 91.556 89.5077 91.1849 88.0681 89.8998C88.0675 89.8993 88.0668 89.8987 88.0662 89.8982L72.5467 76.3464L72.5436 76.3436C72.0659 75.9193 71.4914 75.6112 70.8637 75.4365L69.8142 75.1776C69.4872 75.1497 69.1569 75.1746 68.8423 75.2551L68.8335 75.2574L68.8334 75.2573L48.6118 80.0406L48.6036 80.0426L48.6035 80.0425C47.5078 80.2823 46.3623 80.1806 45.326 79.744L45.3134 79.7387L45.3135 79.7386C42.7977 78.5963 41.657 75.6834 42.7639 73.1678L42.7674 73.1598L42.7675 73.1598L51.3408 54.5686C51.3414 54.5674 51.3419 54.5662 51.3424 54.565C51.8751 53.3554 51.7781 51.9668 51.0791 50.8384C51.0787 50.8378 51.0783 50.8372 51.0779 50.8366L40.062 33.3858L40.0618 33.3856C39.0378 31.7616 39.0605 29.7033 40.1294 28.1026C41.1751 26.511 43.0279 25.623 44.9413 25.7926L44.9472 25.7932L44.9472 25.7932L65.7253 27.8836C65.732 27.8843 65.7387 27.8851 65.7454 27.8861C67.1425 28.0841 68.5434 27.5655 69.4599 26.5195C69.4604 26.519 69.4609 26.5184 69.4614 26.5178L82.8428 10.9195L82.8512 10.9096L82.8514 10.9097C83.1964 10.5279 83.6022 10.1948 84.0591 9.93767C84.0745 9.92903 84.0903 9.9212 84.1065 9.91421L84.5018 9.74325C84.7788 9.56688 85.0746 9.43765 85.3841 9.34966C85.4122 9.34167 85.4409 9.33614 85.4699 9.33312L85.9406 9.28417L86.6877 9.17749C86.7516 9.16836 86.8166 9.1716 86.879 9.18701L88.5772 9.60595C88.5937 9.61002 88.6099 9.61491 88.6259 9.62062C90.2576 10.2046 91.4855 11.5547 91.8823 13.2237L91.884 13.2309L91.884 13.2309L96.304 33.1413L96.3046 33.1441C96.5834 34.4352 97.4942 35.5137 98.7384 36.0283C98.739 36.0286 98.7397 36.0288 98.7404 36.0291L118.052 43.8283L96.6125 86.5741ZM96.6125 86.5741L98.0128 66.2125C98.0129 66.2114 98.013 66.2103 98.0131 66.2092C98.1229 64.909 98.8736 63.7399 100.026 63.0856C100.027 63.0851 100.028 63.0846 100.029 63.0841L118.695 52.7906C118.696 52.7904 118.696 52.7901 118.697 52.7899C120.402 51.8582 121.408 50.0435 121.272 48.128L121.272 48.128M96.6125 86.5741L121.272 48.128M121.272 48.128L121.271 48.1186M121.272 48.128L121.271 48.1186M121.271 48.1186C121.099 46.2083 119.856 44.5528 118.053 43.8287L121.271 48.1186Z" stroke="url(#paint1_linear_127_293)" stroke-linecap="round" stroke-linejoin="round"/>
</g>
<defs>
<filter id="filter0_f_127_293" x="15.2969" y="36.9508" width="65.5126" height="65.0482" filterUnits="userSpaceOnUse" color-interpolation-filters="sRGB">
<feFlood flood-opacity="0" result="BackgroundImageFix"/>
<feBlend mode="normal" in="SourceGraphic" in2="BackgroundImageFix" result="shape"/>
<feGaussianBlur stdDeviation="10" result="effect1_foregroundBlur_127_293"/>
</filter>
<filter id="filter1_b_127_293" x="14.8094" y="-15.3265" width="130.976" height="131.025" filterUnits="userSpaceOnUse" color-interpolation-filters="sRGB">
<feFlood flood-opacity="0" result="BackgroundImageFix"/>
<feGaussianBlur in="BackgroundImageFix" stdDeviation="12"/>
<feComposite in2="SourceAlpha" operator="in" result="effect1_backgroundBlur_127_293"/>
<feBlend mode="normal" in="SourceGraphic" in2="effect1_backgroundBlur_127_293" result="shape"/>
</filter>
<linearGradient id="paint0_linear_127_293" x1="12.4354" y1="60.1214" x2="78.8445" y2="123.481" gradientUnits="userSpaceOnUse">
<stop stop-color="#FFA78F"/>
<stop offset="1" stop-color="#F23E2C"/>
</linearGradient>
<linearGradient id="paint1_linear_127_293" x1="58.1523" y1="11.9352" x2="89.6386" y2="86.1059" gradientUnits="userSpaceOnUse">
<stop stop-color="white" stop-opacity="0.25"/>
<stop offset="1" stop-color="white" stop-opacity="0"/>
</linearGradient>
</defs>
</svg>
