<svg width="94" height="103" viewBox="0 0 94 103" fill="none" xmlns="http://www.w3.org/2000/svg">
<path d="M63.1468 15.4998L35.3731 8.19331C25.2989 5.54307 17.8527 9.79134 15.1445 19.7147L5.9719 53.324C3.21924 63.41 7.53979 70.6143 17.614 73.2645L45.3877 80.571C55.6243 83.2639 62.8693 79.1022 65.6219 69.0162L74.7945 35.4069C77.5028 25.4835 73.3834 18.1927 63.1468 15.4998Z" fill="url(#paint0_linear_467_4912)"/>
<g opacity="0.5" filter="url(#filter0_f_467_4912)">
<path d="M32.3205 43.4252C26.6944 42.8376 22.4213 38.0949 22.4213 32.4382C22.4213 26.7815 26.6944 22.0388 32.3205 21.4512L40.987 20.546C48.0436 19.809 54.1859 25.3433 54.1859 32.4382C54.1859 39.5332 48.0435 45.0674 40.987 44.3304L32.3205 43.4252Z" fill="#0062FF"/>
</g>
<g filter="url(#filter1_b_467_4912)">
<path d="M84.8404 49.7963C84.8404 36.0794 76.3708 28 62.0377 28H24.4806C10.1439 28 1.67419 36.0794 1.67419 49.7963V79.6719C1.67419 93.3888 10.1439 101.5 24.4806 101.5H62.0525C76.3855 101.5 84.8552 93.3888 84.8552 79.6719C84.8552 65.955 84.8404 51.3117 84.8404 49.7963Z" fill="#3EA0FE" fill-opacity="0.35"/>
<path d="M85.3404 49.7963C85.3404 42.8331 83.188 37.2415 79.1594 33.3928C75.1337 29.5469 69.2962 27.5 62.0377 27.5H24.4806C17.2204 27.5 11.3819 29.5469 7.35576 33.3927C3.3266 37.2415 1.17419 42.8331 1.17419 49.7963V79.6719C1.17419 86.635 3.32655 92.2343 7.35537 96.091C11.3813 99.9448 17.2198 102 24.4806 102H62.0525C69.3114 102 75.1491 99.9448 79.1745 96.0909C83.2029 92.2343 85.3552 86.635 85.3552 79.6719C85.3552 72.8133 85.3515 65.7231 85.3478 60.1582C85.346 57.3749 85.3441 54.9733 85.3427 53.173C85.3414 51.3736 85.3404 50.1749 85.3404 49.7963Z" stroke="url(#paint1_linear_467_4912)" stroke-linecap="round" stroke-linejoin="round"/>
</g>
<g filter="url(#filter2_b_467_4912)">
<path d="M54.8392 66.5825C55.9618 71.5762 60.4385 75.0896 65.5494 74.9983H88.4731C90.5996 74.9983 92.3245 73.2758 92.3245 71.1468V57.8561C92.32 55.7316 90.5996 54.0046 88.4731 54H65.1387C59.325 54.0183 54.6293 58.7379 54.6384 64.554C54.6384 65.2347 54.7069 65.9155 54.8392 66.5825Z" fill="#3EA0FE" fill-opacity="0.35"/>
<path d="M54.3488 66.6798L54.3486 66.6798L54.3514 66.6922C55.5257 71.9159 60.2076 75.5917 65.5538 75.4983H88.4731C90.8755 75.4983 92.8245 73.5522 92.8245 71.1468V57.8561V57.855C92.8194 55.4562 90.8769 53.5052 88.4741 53.5H88.4731L65.1387 53.5L65.1371 53.5C59.0475 53.5191 54.1291 58.4628 54.1384 64.5543C54.1385 65.2684 54.2103 65.9816 54.3488 66.6798Z" stroke="url(#paint2_linear_467_4912)" stroke-linecap="round" stroke-linejoin="round"/>
</g>
<g filter="url(#filter3_bd_467_4912)">
<ellipse cx="65.3331" cy="64.5" rx="4.58344" ry="4.5" fill="url(#paint3_linear_467_4912)"/>
<path d="M69.8166 64.5C69.8166 66.9283 67.811 68.9 65.3331 68.9C62.8553 68.9 60.8497 66.9283 60.8497 64.5C60.8497 62.0717 62.8553 60.1 65.3331 60.1C67.811 60.1 69.8166 62.0717 69.8166 64.5Z" stroke="url(#paint4_linear_467_4912)" stroke-opacity="0.5" stroke-width="0.2"/>
</g>
<g filter="url(#filter4_bd_467_4912)">
<path d="M44.8727 49.9241H21.4157C19.6596 49.9171 18.24 48.5475 18.2474 46.8665C18.2548 45.1926 19.6707 43.8372 21.4157 43.8301H44.8875C46.6436 43.823 48.078 45.182 48.0854 46.863C48.0928 48.5475 46.6731 49.9171 44.9171 49.9241H44.8875H44.8727Z" fill="url(#paint5_linear_467_4912)"/>
<path d="M44.8875 43.9301L44.8879 43.9301C46.593 43.9232 47.9782 45.2418 47.9854 46.8634C47.9925 48.4886 46.6217 49.8171 44.9169 49.8241H44.8875H44.8727H21.4158C19.711 49.8171 18.3403 48.4885 18.3474 46.8669C18.3545 45.2519 19.7219 43.9371 21.4159 43.9301L44.8875 43.9301Z" stroke="url(#paint6_linear_467_4912)" stroke-opacity="0.5" stroke-width="0.2"/>
</g>
<defs>
<filter id="filter0_f_467_4912" x="2.42126" y="0.480103" width="71.7647" height="63.9163" filterUnits="userSpaceOnUse" color-interpolation-filters="sRGB">
<feFlood flood-opacity="0" result="BackgroundImageFix"/>
<feBlend mode="normal" in="SourceGraphic" in2="BackgroundImageFix" result="shape"/>
<feGaussianBlur stdDeviation="10" result="effect1_foregroundBlur_467_4912"/>
</filter>
<filter id="filter1_b_467_4912" x="-23.3258" y="3" width="133.181" height="123.5" filterUnits="userSpaceOnUse" color-interpolation-filters="sRGB">
<feFlood flood-opacity="0" result="BackgroundImageFix"/>
<feGaussianBlur in="BackgroundImageFix" stdDeviation="12"/>
<feComposite in2="SourceAlpha" operator="in" result="effect1_backgroundBlur_467_4912"/>
<feBlend mode="normal" in="SourceGraphic" in2="effect1_backgroundBlur_467_4912" result="shape"/>
</filter>
<filter id="filter2_b_467_4912" x="29.6384" y="29" width="87.6861" height="71" filterUnits="userSpaceOnUse" color-interpolation-filters="sRGB">
<feFlood flood-opacity="0" result="BackgroundImageFix"/>
<feGaussianBlur in="BackgroundImageFix" stdDeviation="12"/>
<feComposite in2="SourceAlpha" operator="in" result="effect1_backgroundBlur_467_4912"/>
<feBlend mode="normal" in="SourceGraphic" in2="effect1_backgroundBlur_467_4912" result="shape"/>
</filter>
<filter id="filter3_bd_467_4912" x="45.7497" y="45" width="39.1669" height="39" filterUnits="userSpaceOnUse" color-interpolation-filters="sRGB">
<feFlood flood-opacity="0" result="BackgroundImageFix"/>
<feGaussianBlur in="BackgroundImageFix" stdDeviation="7.5"/>
<feComposite in2="SourceAlpha" operator="in" result="effect1_backgroundBlur_467_4912"/>
<feColorMatrix in="SourceAlpha" type="matrix" values="0 0 0 0 0 0 0 0 0 0 0 0 0 0 0 0 0 0 127 0" result="hardAlpha"/>
<feOffset dx="5" dy="5"/>
<feGaussianBlur stdDeviation="5"/>
<feColorMatrix type="matrix" values="0 0 0 0 0.15375 0 0 0 0 0.522433 0 0 0 0 0.9 0 0 0 0.5 0"/>
<feBlend mode="normal" in2="effect1_backgroundBlur_467_4912" result="effect2_dropShadow_467_4912"/>
<feBlend mode="normal" in="SourceGraphic" in2="effect2_dropShadow_467_4912" result="shape"/>
</filter>
<filter id="filter4_bd_467_4912" x="3.24738" y="28.8301" width="59.838" height="36.0941" filterUnits="userSpaceOnUse" color-interpolation-filters="sRGB">
<feFlood flood-opacity="0" result="BackgroundImageFix"/>
<feGaussianBlur in="BackgroundImageFix" stdDeviation="7.5"/>
<feComposite in2="SourceAlpha" operator="in" result="effect1_backgroundBlur_467_4912"/>
<feColorMatrix in="SourceAlpha" type="matrix" values="0 0 0 0 0 0 0 0 0 0 0 0 0 0 0 0 0 0 127 0" result="hardAlpha"/>
<feOffset dx="5" dy="5"/>
<feGaussianBlur stdDeviation="5"/>
<feColorMatrix type="matrix" values="0 0 0 0 0.15375 0 0 0 0 0.522433 0 0 0 0 0.9 0 0 0 0.5 0"/>
<feBlend mode="normal" in2="effect1_backgroundBlur_467_4912" result="effect2_dropShadow_467_4912"/>
<feBlend mode="normal" in="SourceGraphic" in2="effect2_dropShadow_467_4912" result="shape"/>
</filter>
<linearGradient id="paint0_linear_467_4912" x1="74.8168" y1="18.5698" x2="-2.67717" y2="42.4817" gradientUnits="userSpaceOnUse">
<stop stop-color="#39AFFD"/>
<stop offset="1" stop-color="#477FFF"/>
</linearGradient>
<linearGradient id="paint1_linear_467_4912" x1="14.9153" y1="36.5628" x2="74.4076" y2="105.149" gradientUnits="userSpaceOnUse">
<stop stop-color="white" stop-opacity="0.25"/>
<stop offset="1" stop-color="white" stop-opacity="0"/>
</linearGradient>
<linearGradient id="paint2_linear_467_4912" x1="60.6374" y1="56.4465" x2="75.0958" y2="82.8777" gradientUnits="userSpaceOnUse">
<stop stop-color="white" stop-opacity="0.25"/>
<stop offset="1" stop-color="white" stop-opacity="0"/>
</linearGradient>
<linearGradient id="paint3_linear_467_4912" x1="69.2667" y1="61.6252" x2="59.056" y2="61.9643" gradientUnits="userSpaceOnUse">
<stop stop-color="white"/>
<stop offset="1" stop-color="white" stop-opacity="0.2"/>
</linearGradient>
<linearGradient id="paint4_linear_467_4912" x1="61.7372" y1="63.0191" x2="69.5211" y2="63.0628" gradientUnits="userSpaceOnUse">
<stop stop-color="white"/>
<stop offset="1" stop-color="white" stop-opacity="0"/>
</linearGradient>
<linearGradient id="paint5_linear_467_4912" x1="45.9699" y1="44.9305" x2="13.5247" y2="50.1101" gradientUnits="userSpaceOnUse">
<stop stop-color="white"/>
<stop offset="1" stop-color="white" stop-opacity="0.2"/>
</linearGradient>
<linearGradient id="paint6_linear_467_4912" x1="21.4616" y1="45.8743" x2="46.7805" y2="46.5587" gradientUnits="userSpaceOnUse">
<stop stop-color="white"/>
<stop offset="1" stop-color="white" stop-opacity="0"/>
</linearGradient>
</defs>
</svg>
