<svg width="20" height="20" viewBox="0 0 20 20" fill="none" xmlns="http://www.w3.org/2000/svg">
<path d="M5.34999 14.7749C3.49166 13.5582 2.29166 11.7249 2.29166 10.1165C2.29166 7.3832 5.74166 4.0332 9.99999 4.0332C11.7417 4.0332 13.3583 4.59154 14.6583 5.4582" stroke="#727272" stroke-width="1.5" stroke-linecap="round" stroke-linejoin="round"/>
<path d="M16.5414 7.17529C17.2839 8.11696 17.7164 9.15863 17.7164 10.117C17.7164 12.8503 14.2581 16.2003 9.99974 16.2003C9.24141 16.2003 8.50057 16.092 7.80807 15.9003" stroke="#727272" stroke-width="1.5" stroke-linecap="round" stroke-linejoin="round"/>
<path d="M8.13807 11.9724C7.64223 11.4816 7.36473 10.8124 7.36723 10.1149C7.3639 8.66074 8.54057 7.47907 9.99557 7.47657C10.6956 7.4749 11.3672 7.7524 11.8622 8.2474" stroke="#727272" stroke-width="1.5" stroke-linecap="round" stroke-linejoin="round"/>
<path d="M12.5912 10.5825C12.3962 11.6592 11.5537 12.5034 10.4771 12.7009" stroke="#727272" stroke-width="1.5" stroke-linecap="round" stroke-linejoin="round"/>
</svg>
