<?xml version="1.0" encoding="UTF-8"?>
<svg id="_Слой_1" data-name="Слой 1" xmlns="http://www.w3.org/2000/svg" xmlns:xlink="http://www.w3.org/1999/xlink" viewBox="0 0 196.26 170.74">
  <defs>
    <style>
      .cls-1, .cls-2, .cls-3, .cls-4, .cls-5, .cls-6 {
        stroke-width: 0px;
      }

      .cls-1, .cls-7 {
        fill: #687d39;
      }

      .cls-2 {
        fill: #8aa457;
      }

      .cls-7 {
        font-family: TrebuchetMS, 'Trebuchet MS';
        font-size: 64.31px;
      }

      .cls-3 {
        fill: #df9a56;
      }

      .cls-8 {
        stroke-width: 2px;
      }

      .cls-8, .cls-9 {
        stroke: #b3ad5f;
      }

      .cls-8, .cls-9, .cls-10 {
        fill: none;
        stroke-miterlimit: 10;
      }

      .cls-11 {
        clip-path: url(#clippath);
      }

      .cls-4 {
        fill: #687d38;
      }

      .cls-5 {
        fill: #b3ad5f;
      }

      .cls-6 {
        fill: #fff;
      }

      .cls-10 {
        stroke: #412258;
        stroke-width: .1px;
      }
    </style>
    <clipPath id="clippath">
      <path class="cls-10" d="M118.32,61.55c-2.35-7-18.1-5.03-23.92-3.91-6.18,1.67-20.98,6.36-19.92,14.39,3.24,37.09,58.03,25.13,43.84-10.47Z"/>
    </clipPath>
  </defs>
  <g>
    <path class="cls-8" d="M138.99,68.43c0,10.28-4.21,18.04-5.74,20.55-7.45,12.24-21.51,20.19-35.81,19.94-20.01-.34-41.55-16.74-41.55-40.5,0-22.37,18.6-40.5,41.55-40.5s41.55,18.13,41.55,40.5Z"/>
    <path class="cls-8" d="M138.99,68.43c0,10.28-4.21,18.04-5.74,20.55-7.45,12.24-21.51,20.19-35.81,19.94-20.01-.34-41.55-16.74-41.55-40.5,0-22.37,18.6-40.5,41.55-40.5s41.55,18.13,41.55,40.5Z"/>
    <line class="cls-9" x1="134.78" y1="50.66" x2="133.05" y2="40.65"/>
    <path class="cls-5" d="M123.51,16.04c-.34,0-.33,9.72,1.72,14.83,1.88,4.69,5.28,10.43,7.69,9.92,1.94-.41,2.99-5.27,1.05-11.38-2.05-6.46-9.56-13.37-10.46-13.36Z"/>
    <path class="cls-6" d="M133.23,40.22c-.2-1.21-.55-2.39-.91-3.57-.38-1.25-.72-2.51-1.16-3.74-.93-2.56-2-5.06-2.96-7.61-.17-.45-.89-.25-.72.2.96,2.55,2.03,5.06,2.96,7.61.43,1.19.76,2.43,1.13,3.64s.73,2.42.94,3.66c.08.48.8.27.72-.2h0Z"/>
    <line class="cls-9" x1="142.48" y1="73.92" x2="145.64" y2="62.19"/>
    <path class="cls-2" d="M149.7,27.93c-.39-.21-7.76,10.27-8.53,17.22-.71,6.39,1.15,16.54,4.23,17.49,2.47.76,6.65-5.3,8.15-13.3,1.58-8.45-2.82-20.85-3.84-21.41Z"/>
    <path class="cls-9" d="M142.48,73.92c-.28.78-1.07,2.56-1.46,3.31-.17.33-.46.77-1.35,2.35-1.47,2.6-1.51,2.83-2.17,3.76-.42.58-1.1,1.43-2.11,2.35"/>
    <path class="cls-9" d="M134.81,86.86c3.56-4.46,8.07-9.47,11.63-13.93"/>
    <path class="cls-2" d="M167.2,53.68c-.08-.15-4.18.29-7.92,1.85-3.56,1.48-6.73,4.02-8.45,6.08-3.25,3.87-6.38,9.86-4.79,11.74,1.28,1.51,9.56-2.4,14.03-7,4.72-4.86,7.55-11.89,7.13-12.68Z"/>
    <path class="cls-6" d="M146.75,73.26c1.03-.79,1.96-1.69,2.87-2.6s1.82-1.78,2.67-2.73,1.62-1.92,2.43-2.9c.89-1.07,1.83-2.11,2.75-3.16.32-.36-.21-.89-.53-.53-.87,1-1.76,1.98-2.61,2.99s-1.57,1.99-2.44,2.92c-.81.88-1.66,1.72-2.5,2.57-.97.97-1.93,1.96-3.02,2.79-.38.29,0,.94.38.65h0Z"/>
    <path class="cls-5" d="M169.05,80.48c.17-.02-3.34-2.59-7.83-3.96-6.55-2-9.88-.71-12.44.18-4.78,1.65-11.79,8.26-11.21,10.65.26,1.09,6.6,1.69,12.81.04,6.55-1.74,12.57-6.21,18.68-6.91Z"/>
    <path class="cls-6" d="M138.54,87.33c2.68-2.08,5.97-3.03,9.03-4.38,1.21-.53,2.6-.83,3.87-1.19,1.35-.38,2.79-.87,4.2-.9.48,0,.48-.76,0-.75-1.45.02-2.93.5-4.32.9s-2.78.7-4.06,1.26c-3.17,1.39-6.5,2.39-9.26,4.54-.38.3.15.82.53.53h0Z"/>
    <line class="cls-9" x1="60.15" y1="50.56" x2="61.88" y2="40.56"/>
    <path class="cls-5" d="M71.42,15.95c.34,0,.33,9.72-1.72,14.83-1.88,4.69-5.28,10.43-7.69,9.92-1.94-.41-2.99-5.27-1.05-11.38,2.05-6.46,9.56-13.37,10.46-13.36Z"/>
    <path class="cls-6" d="M62.43,39.98c.2-1.21.56-2.39.93-3.56s.73-2.47,1.17-3.68c.91-2.47,1.97-4.88,2.92-7.34.17-.45-.55-.65-.72-.2-.95,2.46-2.01,4.87-2.92,7.34-.44,1.17-.77,2.38-1.14,3.58s-.75,2.41-.96,3.66c-.08.47.64.68.72.2h0Z"/>
    <line class="cls-9" x1="52.45" y1="73.83" x2="49.34" y2="62.27"/>
    <path class="cls-2" d="M45.23,27.84c.39-.21,7.76,10.27,8.53,17.22.71,6.39-1.15,16.54-4.23,17.49-2.47.76-6.65-5.3-8.15-13.3-1.58-8.45,2.82-20.85,3.84-21.41Z"/>
    <path class="cls-9" d="M52.45,73.83c.28.78,1.07,2.56,1.46,3.31.17.33.46.77,1.35,2.35,1.47,2.6,1.51,2.83,2.17,3.76.42.58,1.1,1.43,2.11,2.35"/>
    <path class="cls-9" d="M60.21,86.82c-3.56-4.46-7.95-9.25-11.51-13.71"/>
    <path class="cls-2" d="M27.73,53.59c.08-.15,4.18.29,7.92,1.85s6.73,4.02,8.45,6.08c3.25,3.87,6.38,9.86,4.79,11.74-1.28,1.51-9.56-2.4-14.03-7-4.72-4.86-7.55-11.89-7.13-12.68Z"/>
    <path class="cls-6" d="M48.61,72.56c-1.02-.78-1.94-1.7-2.85-2.61s-1.8-1.79-2.66-2.72-1.62-1.94-2.43-2.91c-.87-1.04-1.79-2.05-2.68-3.08-.32-.36-.85.17-.53.53,1.77,2.03,3.46,4.13,5.25,6.13.85.95,1.77,1.82,2.67,2.72s1.84,1.8,2.86,2.58c.38.29.76-.36.38-.65h0Z"/>
    <path class="cls-5" d="M25.88,80.39c-.17-.02,3.34-2.59,7.83-3.96,6.55-2,9.88-.71,12.44.18,4.78,1.65,11.79,8.26,11.21,10.65-.26,1.09-6.6,1.69-12.81.04-6.55-1.74-12.57-6.21-18.68-6.91Z"/>
    <path class="cls-6" d="M56.92,86.7c-2.77-2.15-6.1-3.15-9.26-4.54-1.28-.56-2.72-.87-4.06-1.26s-2.86-.88-4.32-.9c-.48,0-.48.74,0,.75,1.38.02,2.8.5,4.12.87s2.72.67,3.96,1.22c3.07,1.36,6.35,2.3,9.03,4.38.38.29.91-.23.53-.53h0Z"/>
    <path class="cls-2" d="M72.77,10.94c-.28.2,4.29,8.63,9.53,11.39,4.31,2.27,13.6,4.38,13.6,3.83,0-1.2-1.56-6.69-6.72-10.52-5.45-4.04-15.67-5.23-16.41-4.7Z"/>
    <path class="cls-6" d="M96.01,25.73c-1.87-1.55-3.93-2.86-5.85-4.34-2.74-2.1-5.72-3.82-8.6-5.73-.4-.27-.78.38-.38.65,2.81,1.86,5.75,3.55,8.43,5.6,1.93,1.48,4,2.8,5.87,4.35.37.31.9-.22.53-.53h0Z"/>
    <path class="cls-5" d="M122.59,10.94c.28.2-4.29,8.63-9.53,11.39-4.31,2.27-13.6,4.38-13.6,3.83,0-1.2,1.56-6.69,6.72-10.52,5.45-4.04,15.67-5.23,16.41-4.7Z"/>
    <path class="cls-6" d="M99.88,26.26c1.87-1.55,3.94-2.87,5.87-4.35,2.68-2.05,5.62-3.74,8.43-5.6.4-.27.03-.92-.38-.65-2.87,1.9-5.86,3.63-8.6,5.73-1.92,1.48-3.98,2.79-5.85,4.34-.37.31.16.84.53.53h0Z"/>
    <path class="cls-2" d="M98.31,0c-.29-.13-5.21,8.08-4.99,13.69.19,4.62,2.86,12.59,4.11,12.58,1.14,0,4.11-4.53,4.79-10.6.72-6.41-3.14-15.33-3.91-15.67Z"/>
    <path class="cls-6" d="M97.81,26.07c.13-2.03.23-4.07.27-6.11.03-1.53.32-3.04.31-4.56,0-1.98.13-3.95.24-5.93.03-.48-.72-.48-.75,0-.12,1.98-.23,3.94-.24,5.93,0,1.52-.29,3.03-.31,4.56-.04,2.03-.13,4.08-.27,6.11-.03.48.72.48.75,0h0Z"/>
    <path class="cls-5" d="M106.65,36.13c-.21.26,7.41,6.3,12.68,7.88,4.84,1.45,11.45,2.35,12.55.15.88-1.77-2.27-5.62-8.26-7.9-6.33-2.41-16.41-.82-16.97-.12Z"/>
    <path class="cls-6" d="M131.67,43.57c-1.04-.58-2.15-1.03-3.25-1.47-1.24-.49-2.47-1.04-3.74-1.46-2.61-.87-5.28-1.61-7.91-2.45-.46-.15-.66.58-.2.72,2.56.82,5.16,1.53,7.7,2.38,1.21.4,2.38.91,3.56,1.38s2.35.93,3.46,1.55c.42.24.8-.41.38-.65h0Z"/>
    <path class="cls-6" d="M49.48,61.59c-.55-1.54-.89-3.14-1.22-4.73s-.75-3.24-1-4.88c-.13-.88-.34-1.76-.4-2.65s-.15-1.84-.26-2.75c-.22-1.79-.5-3.56-.75-5.34-.07-.48-.79-.27-.72.2.27,1.87.57,3.74.78,5.62.1.88.14,1.76.23,2.63s.28,1.66.4,2.49c.25,1.64.66,3.26,1,4.88s.67,3.19,1.22,4.73c.16.45.89.26.72-.2h0Z"/>
    <path class="cls-6" d="M146.11,61.88c.58-1.62.88-3.32,1.23-5,.33-1.58.68-3.15.94-4.74.12-.76.29-1.5.35-2.27.07-.88.14-1.76.24-2.64.21-1.8.5-3.59.76-5.38.07-.47-.66-.68-.72-.2-.24,1.7-.51,3.4-.72,5.1s-.34,3.46-.62,5.18c-.26,1.59-.62,3.16-.94,4.74-.35,1.68-.65,3.38-1.23,5-.16.46.56.65.72.2h0Z"/>
    <path class="cls-5" d="M88.55,36.22c.21.26-7.41,6.3-12.68,7.88-4.84,1.45-11.45,2.35-12.55.15-.88-1.77,2.27-5.62,8.26-7.9,6.33-2.41,16.41-.82,16.97-.12Z"/>
    <path class="cls-6" d="M64.33,44.08c1.07-.59,2.2-1.04,3.34-1.48s2.3-.94,3.48-1.32c2.47-.82,5-1.49,7.48-2.27.46-.14.26-.87-.2-.72-2.56.81-5.14,1.5-7.69,2.34-1.17.39-2.32.89-3.47,1.34s-2.26.89-3.32,1.48c-.42.23-.04.88.38.65h0Z"/>
    <path class="cls-3" d="M118.56,90.73c1.3.98,2.23,2.45,2.55,4.05.43-1.56,1.53-2.91,2.96-3.65-1.31-.98-2.24-2.45-2.56-4.05-.43,1.56-1.53,2.91-2.96,3.65Z"/>
    <path class="cls-3" d="M61.82,72.69c1.3.98,2.23,2.45,2.55,4.05.43-1.56,1.53-2.91,2.96-3.65-1.31-.98-2.24-2.45-2.56-4.05-.43,1.56-1.53,2.91-2.96,3.65Z"/>
    <path class="cls-3" d="M121.32,50.36c1.3.98,2.23,2.45,2.55,4.05.43-1.56,1.53-2.91,2.96-3.65-1.31-.98-2.24-2.45-2.56-4.05-.43,1.56-1.53,2.91-2.96,3.65Z"/>
    <path class="cls-3" d="M68.83,51.57c1.3.98,2.23,2.45,2.55,4.05.43-1.56,1.53-2.91,2.96-3.65-1.31-.98-2.24-2.45-2.56-4.05-.43,1.56-1.53,2.91-2.96,3.65Z"/>
    <path class="cls-3" d="M77.68,95.81c1.3.98,2.23,2.45,2.55,4.05.43-1.56,1.53-2.91,2.96-3.65-1.31-.98-2.24-2.45-2.56-4.05-.43,1.56-1.53,2.91-2.96,3.65Z"/>
    <g>
      <g>
        <path class="cls-2" d="M112.35,87.65c1.11,4.72.44,8.49-4.84,10.03-4.93,1.73-13.19,1.47-13.63-5.32,0,0,18.44-4.71,18.47-4.71Z"/>
        <path class="cls-1" d="M111.87,87.78c.42,1.84.71,3.85.08,5.67-.7,2.01-2.5,3.08-4.43,3.71-3.14,1.02-6.96,1.52-10.03-.03-1.88-.95-2.94-2.68-3.1-4.77l-.37.48c5.39-1.38,10.79-2.75,16.18-4.13.76-.19,1.52-.39,2.29-.58.62-.16.36-1.12-.27-.96-5.4,1.37-10.8,2.76-16.2,4.13-.76.19-1.52.39-2.27.58-.2.05-.38.27-.37.48.16,1.99.95,3.79,2.58,5s3.52,1.6,5.41,1.7c2.03.11,4.08-.19,6.01-.81,2.06-.66,4.09-1.61,5.14-3.62,1.15-2.19.84-4.8.31-7.12-.14-.63-1.11-.36-.96.27Z"/>
      </g>
      <g>
        <path class="cls-2" d="M125.6,73.82c-.82,1.59-3.7,3.53-5.02,4.17-5.4,2.6-4.21.69-8.87.1l2.23,4.38c5.13,2.28,13.76-2.61,15.81-9.63.1-.36,2.62-6.35,1.23-13.03-.47-2.29-3.27-1-6.35.53-6.37,3.15-10.04,9.45-11.47,12.74,1.43,1.54,2.44,1.77,3.09,1.64,2.42-.5-.46-1.61,6.14-8.26.67-.68,3.42-2.74,4.53-3.23,1.36-.82,1.26.22,1.3.81.24,3.9-1.54,7.7-2.63,9.8Z"/>
        <path class="cls-1" d="M125.17,73.57c-1.41,2.47-4.85,4.34-7.51,5.07-.86.24-1.56.18-2.39-.12-1.13-.41-2.22-.75-3.43-.91-.43-.06-.78.32-.56.73l1.94,3.8c.28.55.4.76,1.02.98.93.33,1.95.45,2.93.41,4.56-.19,8.92-3.24,11.39-6.96,2.19-3.31,3.19-7.87,3.34-11.77.06-1.64-.04-3.31-.38-4.92-.17-.82-.56-1.53-1.43-1.75-1.05-.27-2.24.21-3.19.6-1.33.55-2.66,1.18-3.89,1.92-4.59,2.76-8.12,7.29-10.26,12.15-.09.21-.09.43.08.61,1.09,1.13,2.73,2.42,4.36,1.51.71-.4.82-1.2,1.07-1.91.72-2.03,2.18-3.76,3.63-5.31.89-.95,1.83-1.76,2.88-2.52.35-.26,2.52-2,2.91-1.72.3.21.08,1.84.06,2.16-.07,1.06-.28,2.1-.57,3.12-.48,1.68-1.18,3.28-1.98,4.83-.29.57.57,1.08.86.5,1.45-2.81,2.65-5.85,2.72-9.05.01-.68.18-2.08-.57-2.5-.8-.44-1.99.49-2.64.91-3.58,2.31-7.09,5.67-8.42,9.82-.62,1.92-2.61.48-3.6-.54l.08.61c1.6-3.65,3.97-7.04,6.98-9.67,2.02-1.76,4.4-3.11,6.89-4.08.79-.31,2.33-.98,2.9-.02.36.61.36,1.64.43,2.32.08.79.11,1.58.1,2.37-.04,3.49-.84,7.4-2.46,10.55-1.93,3.74-5.74,6.78-9.9,7.58-1.03.2-2.12.25-3.15.04-.23-.05-.92-.13-1.04-.23-.14-.12-.22-.44-.31-.6l-1.9-3.73-.56.73c2.28.31,4.27,1.69,6.58.97,2.84-.88,6.35-2.79,7.87-5.46.32-.56-.54-1.06-.86-.5Z"/>
      </g>
      <path class="cls-6" d="M118.32,61.55c-2.35-7-18.1-5.03-23.92-3.91-6.18,1.67-20.98,6.36-19.92,14.39,3.24,37.09,58.03,25.13,43.84-10.47Z"/>
      <path class="cls-1" d="M89.7,57.23c-1.65-1.82-3.64-3.37-5.92-4.31-1.94-.8-4.63-1.33-6.55-.19-1.48.87-2.21,2.62-1.92,4.3s1.72,3.13,3.29,3.64c1.46.48,3.23.17,4.36-.9s1.36-3,.38-4.23c-.84-1.05-2.43-1.78-3.78-1.69-.67.05-1.33.32-1.71.91-.5.79-.31,1.65.05,2.46.57,1.27,2.17,2.37,3.44,1.29.42-.36.65-.91.49-1.46-.23-.77-1.03-1.15-1.74-1.36-.77-.23-1.1.97-.33,1.21.24.07.49.15.69.3.08.06.19.2.18.18.02.03,0,.08,0,.06-.04.05-.09.12-.18.17-.02.01-.18.06-.23.07-.16.01-.25,0-.39-.07-.44-.19-.7-.66-.87-1.08-.43-1.09.21-1.59,1.27-1.39.81.15,1.97.64,2.32,1.46,1.04,2.41-2.21,3.59-3.97,2.72-1.06-.53-1.99-1.62-2.07-2.83s.54-2.29,1.6-2.8c1.72-.82,4.12-.14,5.74.62,1.91.9,3.56,2.25,4.98,3.81.54.6,1.42-.29.88-.88h0Z"/>
      <path class="cls-1" d="M102.67,55.37c.34-.5.73-1,.99-1.55.32-.68.57-1.39.87-2.08.38-.86.84-1.72,1.45-2.44.49-.58,1.16-1.22,1.96-1.23.76-.01,1.45.48,1.65,1.14.18.6.06,1.28-.27,1.84s-.88,1.02-1.51,1.06c-.34.02-.64-.01-.89-.2-.19-.14-.32-.36-.38-.63-.13-.52.11-1.26.73-1.38.03,0,.13.02.17.05.04.03.09.13.1.17,0,.03.04.11,0-.01,0,.03,0,.07,0,.1-.02-.07.04-.07,0-.04.06-.05,0-.03,0-.03.06,0-.04,0-.05,0,.08,0-.14,0-.13,0-.8-.02-.8,1.23,0,1.25.52.01,1.05-.19,1.3-.68.22-.43.15-.95-.1-1.34-.62-1.01-1.99-.83-2.7-.02s-.79,1.93-.31,2.83c.54,1.01,1.7,1.34,2.77,1.11,2.07-.44,3.21-3.14,2.24-4.97-.57-1.09-1.89-1.65-3.08-1.45s-2.13,1.16-2.82,2.11c-.83,1.14-1.37,2.46-1.9,3.76-.04.09-.07.18-.11.27-.07.17.03-.05-.04.1-.06.12-.11.24-.18.36-.26.44-.56.86-.85,1.28-.45.67.63,1.29,1.08.63h0Z"/>
      <path class="cls-2" d="M117.68,61.21c-1.53-4.33-12.79-5.65-22.62-3.34-11.27,2.64-19.37,7.61-20.16,12.12-.9,5.14,44.46-3.98,42.78-8.78Z"/>
      <path class="cls-1" d="M95.74,59.98c-.98-2.35-2.49-4.18-4.65-5.54-1.82-1.15-3.89-1.92-5.51-3.37-1.04-.93-1.75-2.08-1.64-3.54.1-1.23.79-2.35,1.74-3.11,2.71-2.16,6.37-.8,9.04.67.34.19.83.03.92-.37.51-2.3,2.9-5.51,5.67-4.43,1.31.51,1.75,2,1.8,3.28.08,1.84-.2,3.72-.81,5.45-.55,1.57-1.46,3.17-2.85,4.13-1.68,1.16-3.39.83-5.18.18s-3.66-1.27-5.13-2.63c-.78-.72-1.63-1.8-1.47-2.94.16-1.09,1.22-1.62,2.2-1.78,1.98-.32,4.06.47,5.8,1.33.38.19.78.02.92-.37.38-1.06.8-2.22,1.59-3.05.38-.4.98-.89,1.57-.72s.87.86.97,1.4c.17.96-.22,2.1-.51,3.02-.31.99-.74,2.02-1.45,2.8-1.48,1.6-4.02,1-5.73.07-.47-.25-2.46-1.56-1.93-2.36.23-.34,1.02-.12,1.34-.04,1.31.35,2.49,1.14,3.58,1.91.66.46,1.28-.62.63-1.08-1.32-.93-4.81-3.42-6.44-1.68-1.29,1.39.59,3.31,1.71,4.04,2.15,1.41,5.56,2.14,7.57.17,1.01-.99,1.59-2.39,1.99-3.72s.78-2.74.27-4.06c-.62-1.6-2.25-2.21-3.71-1.27s-2.11,2.7-2.66,4.24l.92-.37c-2.53-1.26-7.76-3.02-9.55.38s2.66,6.15,5.12,7.18c2.13.89,4.56,1.92,6.87,1.11,1.91-.68,3.29-2.32,4.16-4.1.97-1.99,1.39-4.15,1.46-6.34.06-1.78-.25-3.79-1.81-4.91-3.47-2.48-7.39,1.61-8.11,4.83l.92-.37c-2.28-1.26-4.99-2.35-7.65-1.85-2.06.39-3.91,1.83-4.67,3.79-1.79,4.61,2.98,7.08,6.27,8.9,2.34,1.3,4.17,2.95,5.22,5.47.31.73,1.52.41,1.21-.33h0Z"/>
      <g>
        <g class="cls-11">
          <g>
            <g>
              <path class="cls-3" d="M115.04,62.13c-12.92-4.37-27.94.35-38.31,8.66,8.42,4.82,32.43-1.35,38.31-8.66Z"/>
              <path class="cls-4" d="M115.17,61.65c-13.31-4.41-28.14.33-38.79,8.79-.25.2-.16.64.1.79,4.42,2.46,10.27,1.97,15.08,1.3,6.02-.85,12.09-2.57,17.51-5.37,2.31-1.19,4.65-2.63,6.32-4.67.41-.49-.3-1.2-.71-.71-3.12,3.8-8.44,5.83-12.96,7.33-5.49,1.81-11.38,3.02-17.18,2.88-2.56-.06-5.28-.36-7.56-1.63l.1.79c10.38-8.25,24.86-12.82,37.82-8.53.61.2.87-.76.27-.96Z"/>
            </g>
            <path class="cls-4" d="M81.66,70.18c5.13-3.15,10.71-5.65,16.62-6.91,1.48-.32,2.98-.56,4.49-.7.58-.05,1.51-.26,2.08-.13h.42c.51.56.55.92.14,1.06-.15.16-.52.26-.72.36-1.48.73-3.01,1.34-4.56,1.87-2.64.91-5.35,1.64-8.11,2.11-.87.15-1.79.32-2.68.29-.18,0-.39,0-.56-.07.19.09-.06.22.09.1.11-.09.23-.15.36-.23,1.16-.67,2.56-1.02,3.83-1.41,2.79-.86,5.63-1.59,8.46-2.3.31-.08.18-.56-.13-.48-3,.75-6,1.51-8.95,2.45-1.18.37-2.59.71-3.64,1.41-.35.23-.69.58-.24.91.5.36,1.67.08,2.2.02,3.26-.39,6.51-1.27,9.61-2.35,1.76-.61,3.53-1.3,5.16-2.18.53-.29,1.21-.8.92-1.5-.39-.95-2.11-.54-2.84-.49-7.91.55-15.49,3.64-22.19,7.74-.27.17-.02.6.25.43h0Z"/>
          </g>
          <g>
            <path class="cls-5" d="M96.81,96.71c-10.8-2.88-17.12-13.62-19.51-23.94l5.29,1.12c2.6,9.29,7.42,18.32,16.18,23.05l-1.95-.23Z"/>
            <path class="cls-5" d="M93.59,74.52c1.98,7.57,4.99,14.86,8.92,21.62l-2,.43c-6.72-5.34-10.25-14.13-12.59-22.19l5.67.15Z"/>
            <path class="cls-5" d="M105.18,96.02c-2.24-7.71-4.63-15.38-7.16-23.01l4.46-1.7c2.89,7.25,4.28,15.08,4.07,22.88l-1.38,1.83Z"/>
            <path class="cls-5" d="M111.96,66.6c2.24,8.46,1.95,17.58-.83,25.88l-2.83.19c2.09-7.58.91-15.67-.82-23.34l4.47-2.73Z"/>
            <path class="cls-5" d="M113.33,91.98c4.7-8.82,4.66-18.73,2.41-28.28l3.54-3.59c4.59,10.63,1.95,23.85-5.95,31.87Z"/>
          </g>
          <g>
            <path class="cls-2" d="M119.93,61.33c-11.29,12.91-31.24,18.24-47.09,11.19l.86-4.19c15.7,5.29,34.08.31,44.96-12.19l1.27,5.19Z"/>
            <path class="cls-1" d="M119.58,60.97c-8.73,9.89-22.3,15.28-35.44,13.99-3.8-.37-7.54-1.34-11.04-2.88l.23.56.86-4.19-.62.35c12.35,4.09,26.35,2.05,37.18-5.11,3.06-2.03,5.84-4.45,8.27-7.21l-.84-.22,1.27,5.19c.15.62,1.12.36.96-.27l-1.27-5.19c-.09-.35-.59-.5-.84-.22-8.39,9.54-21.11,14.72-33.78,14.08-3.65-.18-7.24-.87-10.7-2.02-.24-.08-.56.09-.62.35l-.86,4.19c-.04.2.02.47.23.56,12.55,5.5,27.43,3.59,38.86-3.71,3.28-2.1,6.26-4.63,8.84-7.55.42-.48-.28-1.19-.71-.71Z"/>
          </g>
        </g>
        <path class="cls-10" d="M118.32,61.55c-2.35-7-18.1-5.03-23.92-3.91-6.18,1.67-20.98,6.36-19.92,14.39,3.24,37.09,58.03,25.13,43.84-10.47Z"/>
      </g>
      <path class="cls-1" d="M118.8,61.41c-1.71-4.79-8.13-5.34-12.43-5.41-4.92-.08-10,.46-14.72,1.9-5.21,1.59-11.02,3.63-14.97,7.54-1.61,1.59-2.84,3.67-2.75,5.99.09,2.55.63,5.17,1.4,7.6,2.57,8.09,9.02,14.2,17.44,15.74,7.52,1.37,15.68-.77,21.38-5.92,6.65-6.01,8.25-15.09,5.97-23.51-.36-1.33-.81-2.64-1.32-3.92-.23-.59-1.2-.33-.96.27,3.14,7.96,3.48,17.2-2.18,24.14-4.62,5.65-12.03,8.6-19.25,8.35-7.68-.27-14.68-4.36-18.34-11.17-1.08-2-1.84-4.16-2.36-6.37s-1.21-4.95-.5-7.16c.77-2.39,2.9-4.15,4.93-5.48,2.36-1.54,4.97-2.71,7.6-3.7,4.33-1.62,8.6-2.64,13.21-3.05,2.65-.24,5.34-.33,7.99-.09,2.38.21,5.02.66,7,2.09.87.62,1.53,1.45,1.89,2.46.22.6,1.18.34.96-.27Z"/>
    </g>
  </g>
  <text class="cls-7" transform="translate(0 153.88) scale(1.05 1)"><tspan x="0" y="0">Арман</tspan></text>
</svg>