<svg width="28" height="28" viewBox="0 0 28 28" fill="none" xmlns="http://www.w3.org/2000/svg">
<g clip-path="url(#clip0_426_1435)">
<path d="M28 3.45333H4.94667V3.08C4.82222 2.20889 4.43333 1.47778 3.78 0.886667C3.12667 0.295555 2.33333 0 1.4 0H0V2.33333H1.4C1.71111 2.33333 1.97556 2.42667 2.19333 2.61333C2.41111 2.8 2.55111 3.04889 2.61333 3.36L4.48 19.04C4.54222 19.9733 4.9 20.72 5.55333 21.28C6.20667 21.84 7 22.1511 7.93333 22.2133H23.3333V19.7867H7.93333C7.62222 19.7867 7.35778 19.6933 7.14 19.5067C6.92222 19.32 6.78222 19.0711 6.72 18.76L6.62667 17.4533H25.48L28 3.45333ZM23.52 15.12H6.34667L5.22667 5.78667H25.2L23.52 15.12ZM5.88 25.6667C5.81778 26.2889 6.02 26.8333 6.48667 27.3C6.95333 27.7667 7.51333 28 8.16667 28C8.82 28 9.36444 27.7667 9.8 27.3C10.2356 26.8333 10.4689 26.2889 10.5 25.6667C10.5311 25.0444 10.3133 24.5 9.84667 24.0333C9.38 23.5667 8.82 23.3333 8.16667 23.3333C7.51333 23.3333 6.96889 23.5667 6.53333 24.0333C6.09778 24.5 5.88 25.0444 5.88 25.6667ZM17.5467 25.6667C17.4844 26.2889 17.6867 26.8333 18.1533 27.3C18.62 27.7667 19.18 28 19.8333 28C20.4867 28 21.0311 27.7667 21.4667 27.3C21.9022 26.8333 22.1356 26.2889 22.1667 25.6667C22.1978 25.0444 21.98 24.5 21.5133 24.0333C21.0467 23.5667 20.4867 23.3333 19.8333 23.3333C19.18 23.3333 18.6356 23.5667 18.2 24.0333C17.7644 24.5 17.5467 25.0444 17.5467 25.6667Z" fill="#3EB953"/>
</g>
<defs>
<clipPath id="clip0_426_1435">
<rect width="28" height="28" fill="white" transform="matrix(1 0 0 -1 0 28)"/>
</clipPath>
</defs>
</svg>
