<svg width="72" height="30" viewBox="0 0 72 30" fill="none" xmlns="http://www.w3.org/2000/svg">
<path d="M0 15C0 6.71573 6.71573 0 15 0H72V10C72 21.0457 63.0457 30 52 30H0V15Z" fill="#F74B81"/>
<path d="M30.932 20H29.588C29.4853 20 29.4037 19.9743 29.343 19.923C29.287 19.867 29.2403 19.8063 29.203 19.741L26.515 15.527C26.4777 15.639 26.4357 15.7347 26.389 15.814L23.771 19.741C23.7243 19.8063 23.673 19.867 23.617 19.923C23.5657 19.9743 23.4933 20 23.4 20H22.14L25.591 14.848L22.28 9.969H23.631C23.729 9.969 23.8013 9.98533 23.848 10.018C23.8947 10.0507 23.9367 10.0973 23.974 10.158L26.592 14.176C26.6247 14.078 26.6737 13.9707 26.739 13.854L29.21 10.186C29.2473 10.1207 29.2917 10.0693 29.343 10.032C29.3943 9.99 29.455 9.969 29.525 9.969H30.82L27.495 14.785L30.932 20ZM38.0114 12.909V20H36.7654V15.184C36.7654 15.0907 36.7701 14.9903 36.7794 14.883C36.7887 14.7757 36.8004 14.6683 36.8144 14.561C36.7724 14.6543 36.7304 14.7407 36.6884 14.82C36.6464 14.8993 36.6021 14.9717 36.5554 15.037L33.1324 19.692C33.0811 19.7667 33.0157 19.839 32.9364 19.909C32.8617 19.9743 32.7777 20.007 32.6844 20.007H31.9284V12.916H33.1814V17.732C33.1814 17.8207 33.1767 17.9187 33.1674 18.026C33.1581 18.1287 33.1464 18.2337 33.1324 18.341C33.1744 18.2523 33.2164 18.1707 33.2584 18.096C33.3004 18.0167 33.3424 17.9443 33.3844 17.879L36.8074 13.224C36.8587 13.1493 36.9241 13.0793 37.0034 13.014C37.0827 12.944 37.1691 12.909 37.2624 12.909H38.0114ZM45.8751 13.861H43.1521V20H41.9061V13.861H39.1831V12.909H45.8751V13.861Z" fill="white"/>
</svg>
