<svg width="121" height="30" viewBox="0 0 121 30" fill="none" xmlns="http://www.w3.org/2000/svg">
<path d="M0 15C0 6.71573 6.71573 0 15 0H121V10C121 21.0457 112.046 30 101 30H0V15Z" fill="#67BCEE"/>
<path d="M24.242 15.17C24.6293 15.17 24.97 15.1187 25.264 15.016C25.5627 14.9133 25.8123 14.771 26.013 14.589C26.2183 14.4023 26.3723 14.1807 26.475 13.924C26.5777 13.6673 26.629 13.385 26.629 13.077C26.629 12.4377 26.4307 11.9383 26.034 11.579C25.642 11.2197 25.0447 11.04 24.242 11.04H22.632V15.17H24.242ZM24.242 9.969C24.8767 9.969 25.4273 10.0437 25.894 10.193C26.3653 10.3377 26.755 10.5453 27.063 10.816C27.371 11.0867 27.5997 11.4133 27.749 11.796C27.903 12.1787 27.98 12.6057 27.98 13.077C27.98 13.5437 27.8983 13.9707 27.735 14.358C27.5717 14.7453 27.3313 15.079 27.014 15.359C26.7013 15.639 26.3117 15.8583 25.845 16.017C25.383 16.171 24.8487 16.248 24.242 16.248H22.632V20H21.281V9.969H24.242ZM33.0195 16.808C32.4455 16.8267 31.9555 16.8733 31.5495 16.948C31.1481 17.018 30.8191 17.1113 30.5625 17.228C30.3105 17.3447 30.1261 17.4823 30.0095 17.641C29.8975 17.7997 29.8415 17.977 29.8415 18.173C29.8415 18.3597 29.8718 18.5207 29.9325 18.656C29.9931 18.7913 30.0748 18.9033 30.1775 18.992C30.2848 19.076 30.4085 19.139 30.5485 19.181C30.6931 19.2183 30.8471 19.237 31.0105 19.237C31.2298 19.237 31.4305 19.216 31.6125 19.174C31.7945 19.1273 31.9648 19.062 32.1235 18.978C32.2868 18.894 32.4408 18.7937 32.5855 18.677C32.7348 18.5603 32.8795 18.4273 33.0195 18.278V16.808ZM28.9945 13.91C29.3865 13.532 29.8088 13.2497 30.2615 13.063C30.7141 12.8763 31.2158 12.783 31.7665 12.783C32.1631 12.783 32.5155 12.8483 32.8235 12.979C33.1315 13.1097 33.3905 13.2917 33.6005 13.525C33.8105 13.7583 33.9691 14.0407 34.0765 14.372C34.1838 14.7033 34.2375 15.0673 34.2375 15.464V20H33.6845C33.5631 20 33.4698 19.9813 33.4045 19.944C33.3391 19.902 33.2878 19.8227 33.2505 19.706L33.1105 19.034C32.9238 19.2067 32.7418 19.3607 32.5645 19.496C32.3871 19.6267 32.2005 19.7387 32.0045 19.832C31.8085 19.9207 31.5985 19.9883 31.3745 20.035C31.1551 20.0863 30.9101 20.112 30.6395 20.112C30.3641 20.112 30.1051 20.0747 29.8625 20C29.6198 19.9207 29.4075 19.804 29.2255 19.65C29.0481 19.496 28.9058 19.3023 28.7985 19.069C28.6958 18.831 28.6445 18.551 28.6445 18.229C28.6445 17.949 28.7215 17.6807 28.8755 17.424C29.0295 17.1627 29.2791 16.9317 29.6245 16.731C29.9698 16.5303 30.4201 16.367 30.9755 16.241C31.5308 16.1103 32.2121 16.0357 33.0195 16.017V15.464C33.0195 14.9133 32.9005 14.498 32.6625 14.218C32.4245 13.9333 32.0768 13.791 31.6195 13.791C31.3115 13.791 31.0525 13.8307 30.8425 13.91C30.6371 13.9847 30.4575 14.071 30.3035 14.169C30.1541 14.2623 30.0235 14.3487 29.9115 14.428C29.8041 14.5027 29.6968 14.54 29.5895 14.54C29.5055 14.54 29.4331 14.519 29.3725 14.477C29.3118 14.4303 29.2605 14.3743 29.2185 14.309L28.9945 13.91ZM41.0704 14.169C41.0331 14.2203 40.9958 14.26 40.9584 14.288C40.9211 14.316 40.8698 14.33 40.8044 14.33C40.7344 14.33 40.6574 14.302 40.5734 14.246C40.4894 14.1853 40.3844 14.12 40.2584 14.05C40.1371 13.98 39.9854 13.917 39.8034 13.861C39.6261 13.8003 39.4068 13.77 39.1454 13.77C38.7954 13.77 38.4874 13.833 38.2214 13.959C37.9554 14.0803 37.7314 14.2577 37.5494 14.491C37.3721 14.7243 37.2368 15.0067 37.1434 15.338C37.0548 15.6693 37.0104 16.0403 37.0104 16.451C37.0104 16.8803 37.0594 17.263 37.1574 17.599C37.2554 17.9303 37.3931 18.2103 37.5704 18.439C37.7524 18.663 37.9694 18.8357 38.2214 18.957C38.4781 19.0737 38.7651 19.132 39.0824 19.132C39.3858 19.132 39.6354 19.097 39.8314 19.027C40.0274 18.9523 40.1884 18.8707 40.3144 18.782C40.4451 18.6933 40.5524 18.614 40.6364 18.544C40.7251 18.4693 40.8114 18.432 40.8954 18.432C40.9981 18.432 41.0774 18.4717 41.1334 18.551L41.4834 19.006C41.3294 19.1973 41.1544 19.3607 40.9584 19.496C40.7624 19.6313 40.5501 19.7457 40.3214 19.839C40.0974 19.9277 39.8618 19.993 39.6144 20.035C39.3671 20.077 39.1151 20.098 38.8584 20.098C38.4151 20.098 38.0021 20.0163 37.6194 19.853C37.2414 19.6897 36.9124 19.454 36.6324 19.146C36.3524 18.8333 36.1331 18.4507 35.9744 17.998C35.8158 17.5453 35.7364 17.0297 35.7364 16.451C35.7364 15.9237 35.8088 15.436 35.9534 14.988C36.1028 14.54 36.3174 14.155 36.5974 13.833C36.8821 13.5063 37.2298 13.252 37.6404 13.07C38.0558 12.888 38.5318 12.797 39.0684 12.797C39.5678 12.797 40.0064 12.8787 40.3844 13.042C40.7671 13.2007 41.1054 13.427 41.3994 13.721L41.0704 14.169ZM48.729 20H47.476V13.861H44.074V20H42.821V12.909H48.729V20ZM51.9627 18.292C52.1913 18.6 52.441 18.817 52.7117 18.943C52.9823 19.069 53.2857 19.132 53.6217 19.132C54.2843 19.132 54.793 18.8963 55.1477 18.425C55.5023 17.9537 55.6797 17.2817 55.6797 16.409C55.6797 15.947 55.6377 15.5503 55.5537 15.219C55.4743 14.8877 55.3577 14.617 55.2037 14.407C55.0497 14.1923 54.8607 14.036 54.6367 13.938C54.4127 13.84 54.1583 13.791 53.8737 13.791C53.4677 13.791 53.1107 13.8843 52.8027 14.071C52.4993 14.2577 52.2193 14.5213 51.9627 14.862V18.292ZM51.8997 14.008C52.1983 13.6393 52.5437 13.343 52.9357 13.119C53.3277 12.895 53.7757 12.783 54.2797 12.783C54.6903 12.783 55.0613 12.8623 55.3927 13.021C55.724 13.175 56.0063 13.406 56.2397 13.714C56.473 14.0173 56.6527 14.3953 56.7787 14.848C56.9047 15.3007 56.9677 15.821 56.9677 16.409C56.9677 16.9317 56.8977 17.4193 56.7577 17.872C56.6177 18.32 56.4147 18.7097 56.1487 19.041C55.8873 19.3677 55.5653 19.6267 55.1827 19.818C54.8047 20.0047 54.3777 20.098 53.9017 20.098C53.4677 20.098 53.0943 20.0257 52.7817 19.881C52.4737 19.7317 52.2007 19.5263 51.9627 19.265V22.401H50.7097V12.909H51.4587C51.636 12.909 51.7457 12.9953 51.7877 13.168L51.8997 14.008ZM61.5326 12.797C62.0506 12.797 62.5173 12.8833 62.9326 13.056C63.348 13.2287 63.7026 13.4737 63.9966 13.791C64.2906 14.1083 64.5146 14.4933 64.6686 14.946C64.8273 15.394 64.9066 15.8957 64.9066 16.451C64.9066 17.011 64.8273 17.515 64.6686 17.963C64.5146 18.411 64.2906 18.7937 63.9966 19.111C63.7026 19.4283 63.348 19.6733 62.9326 19.846C62.5173 20.014 62.0506 20.098 61.5326 20.098C61.01 20.098 60.5386 20.014 60.1186 19.846C59.7033 19.6733 59.3486 19.4283 59.0546 19.111C58.7606 18.7937 58.5343 18.411 58.3756 17.963C58.2216 17.515 58.1446 17.011 58.1446 16.451C58.1446 15.8957 58.2216 15.394 58.3756 14.946C58.5343 14.4933 58.7606 14.1083 59.0546 13.791C59.3486 13.4737 59.7033 13.2287 60.1186 13.056C60.5386 12.8833 61.01 12.797 61.5326 12.797ZM61.5326 19.125C62.2326 19.125 62.7553 18.8917 63.1006 18.425C63.446 17.9537 63.6186 17.298 63.6186 16.458C63.6186 15.6133 63.446 14.9553 63.1006 14.484C62.7553 14.0127 62.2326 13.777 61.5326 13.777C61.178 13.777 60.8676 13.8377 60.6016 13.959C60.3403 14.0803 60.121 14.2553 59.9436 14.484C59.771 14.7127 59.6403 14.995 59.5516 15.331C59.4676 15.6623 59.4256 16.038 59.4256 16.458C59.4256 17.298 59.5983 17.9537 59.9436 18.425C60.2936 18.8917 60.8233 19.125 61.5326 19.125ZM71.1132 19.09V13.889H68.8662C68.8196 14.617 68.7542 15.261 68.6702 15.821C68.5862 16.381 68.4882 16.8733 68.3762 17.298C68.2689 17.718 68.1476 18.075 68.0122 18.369C67.8816 18.663 67.7439 18.9033 67.5992 19.09H71.1132ZM73.6192 19.055V22.058C73.6192 22.1793 73.5842 22.2727 73.5142 22.338C73.4489 22.408 73.3626 22.443 73.2552 22.443H72.4922V20H66.5282V22.086C66.5282 22.1747 66.5002 22.2563 66.4442 22.331C66.3929 22.4057 66.3066 22.443 66.1852 22.443H65.4012V19.09H65.6322C65.7956 19.09 65.9566 19.062 66.1152 19.006C66.2786 18.95 66.4349 18.845 66.5842 18.691C66.7336 18.5323 66.8736 18.3107 67.0042 18.026C67.1396 17.7413 67.2609 17.3703 67.3682 16.913C67.4756 16.4557 67.5689 15.9003 67.6482 15.247C67.7276 14.589 67.7906 13.8097 67.8372 12.909H72.3242V19.055H73.6192ZM78.7245 16.808C78.1505 16.8267 77.6605 16.8733 77.2545 16.948C76.8532 17.018 76.5242 17.1113 76.2675 17.228C76.0155 17.3447 75.8312 17.4823 75.7145 17.641C75.6025 17.7997 75.5465 17.977 75.5465 18.173C75.5465 18.3597 75.5769 18.5207 75.6375 18.656C75.6982 18.7913 75.7799 18.9033 75.8825 18.992C75.9899 19.076 76.1135 19.139 76.2535 19.181C76.3982 19.2183 76.5522 19.237 76.7155 19.237C76.9349 19.237 77.1355 19.216 77.3175 19.174C77.4995 19.1273 77.6699 19.062 77.8285 18.978C77.9919 18.894 78.1459 18.7937 78.2905 18.677C78.4399 18.5603 78.5845 18.4273 78.7245 18.278V16.808ZM74.6995 13.91C75.0915 13.532 75.5139 13.2497 75.9665 13.063C76.4192 12.8763 76.9209 12.783 77.4715 12.783C77.8682 12.783 78.2205 12.8483 78.5285 12.979C78.8365 13.1097 79.0955 13.2917 79.3055 13.525C79.5155 13.7583 79.6742 14.0407 79.7815 14.372C79.8889 14.7033 79.9425 15.0673 79.9425 15.464V20H79.3895C79.2682 20 79.1749 19.9813 79.1095 19.944C79.0442 19.902 78.9929 19.8227 78.9555 19.706L78.8155 19.034C78.6289 19.2067 78.4469 19.3607 78.2695 19.496C78.0922 19.6267 77.9055 19.7387 77.7095 19.832C77.5135 19.9207 77.3035 19.9883 77.0795 20.035C76.8602 20.0863 76.6152 20.112 76.3445 20.112C76.0692 20.112 75.8102 20.0747 75.5675 20C75.3249 19.9207 75.1125 19.804 74.9305 19.65C74.7532 19.496 74.6109 19.3023 74.5035 19.069C74.4009 18.831 74.3495 18.551 74.3495 18.229C74.3495 17.949 74.4265 17.6807 74.5805 17.424C74.7345 17.1627 74.9842 16.9317 75.3295 16.731C75.6749 16.5303 76.1252 16.367 76.6805 16.241C77.2359 16.1103 77.9172 16.0357 78.7245 16.017V15.464C78.7245 14.9133 78.6055 14.498 78.3675 14.218C78.1295 13.9333 77.7819 13.791 77.3245 13.791C77.0165 13.791 76.7575 13.8307 76.5475 13.91C76.3422 13.9847 76.1625 14.071 76.0085 14.169C75.8592 14.2623 75.7285 14.3487 75.6165 14.428C75.5092 14.5027 75.4019 14.54 75.2945 14.54C75.2105 14.54 75.1382 14.519 75.0775 14.477C75.0169 14.4303 74.9655 14.3743 74.9235 14.309L74.6995 13.91ZM91.7105 20H90.8425C90.6185 20 90.4458 19.965 90.3245 19.895C90.2078 19.825 90.1168 19.7153 90.0515 19.566L88.6725 17.361C88.4438 16.997 88.1148 16.815 87.6855 16.815H86.9715V20.007H85.7605V16.815H85.0535C84.8435 16.815 84.6522 16.8617 84.4795 16.955C84.3115 17.0483 84.1738 17.1837 84.0665 17.361L82.6875 19.566C82.6175 19.7153 82.5218 19.825 82.4005 19.895C82.2838 19.965 82.1135 20 81.8895 20H81.0285L82.8905 17.067C83.0118 16.8617 83.1495 16.696 83.3035 16.57C83.4575 16.444 83.6465 16.3483 83.8705 16.283C83.6932 16.227 83.5415 16.1453 83.4155 16.038C83.2942 15.926 83.1798 15.7837 83.0725 15.611L81.2245 12.909H82.2045C82.3258 12.909 82.4355 12.9417 82.5335 13.007C82.6315 13.0677 82.7085 13.1517 82.7645 13.259L84.2695 15.499C84.3722 15.653 84.4958 15.772 84.6405 15.856C84.7852 15.9353 84.9555 15.975 85.1515 15.975H85.7605V12.909H86.9715V15.975H87.5665C87.9632 15.975 88.2618 15.8163 88.4625 15.499L89.9675 13.259C90.0235 13.1517 90.1005 13.0677 90.1985 13.007C90.3012 12.9417 90.4132 12.909 90.5345 12.909H91.5145L89.6665 15.611C89.5592 15.7837 89.4425 15.926 89.3165 16.038C89.1952 16.1453 89.0458 16.227 88.8685 16.283C89.0925 16.3483 89.2815 16.444 89.4355 16.57C89.5895 16.696 89.7272 16.8617 89.8485 17.067L91.7105 20ZM96.7167 16.808C96.1427 16.8267 95.6527 16.8733 95.2467 16.948C94.8454 17.018 94.5164 17.1113 94.2597 17.228C94.0077 17.3447 93.8234 17.4823 93.7067 17.641C93.5947 17.7997 93.5387 17.977 93.5387 18.173C93.5387 18.3597 93.5691 18.5207 93.6297 18.656C93.6904 18.7913 93.7721 18.9033 93.8747 18.992C93.9821 19.076 94.1057 19.139 94.2457 19.181C94.3904 19.2183 94.5444 19.237 94.7077 19.237C94.9271 19.237 95.1277 19.216 95.3097 19.174C95.4917 19.1273 95.6621 19.062 95.8207 18.978C95.9841 18.894 96.1381 18.7937 96.2827 18.677C96.4321 18.5603 96.5767 18.4273 96.7167 18.278V16.808ZM92.6917 13.91C93.0837 13.532 93.5061 13.2497 93.9587 13.063C94.4114 12.8763 94.9131 12.783 95.4637 12.783C95.8604 12.783 96.2127 12.8483 96.5207 12.979C96.8287 13.1097 97.0877 13.2917 97.2977 13.525C97.5077 13.7583 97.6664 14.0407 97.7737 14.372C97.8811 14.7033 97.9347 15.0673 97.9347 15.464V20H97.3817C97.2604 20 97.1671 19.9813 97.1017 19.944C97.0364 19.902 96.9851 19.8227 96.9477 19.706L96.8077 19.034C96.6211 19.2067 96.4391 19.3607 96.2617 19.496C96.0844 19.6267 95.8977 19.7387 95.7017 19.832C95.5057 19.9207 95.2957 19.9883 95.0717 20.035C94.8524 20.0863 94.6074 20.112 94.3367 20.112C94.0614 20.112 93.8024 20.0747 93.5597 20C93.3171 19.9207 93.1047 19.804 92.9227 19.65C92.7454 19.496 92.6031 19.3023 92.4957 19.069C92.3931 18.831 92.3417 18.551 92.3417 18.229C92.3417 17.949 92.4187 17.6807 92.5727 17.424C92.7267 17.1627 92.9764 16.9317 93.3217 16.731C93.6671 16.5303 94.1174 16.367 94.6727 16.241C95.2281 16.1103 95.9094 16.0357 96.7167 16.017V15.464C96.7167 14.9133 96.5977 14.498 96.3597 14.218C96.1217 13.9333 95.7741 13.791 95.3167 13.791C95.0087 13.791 94.7497 13.8307 94.5397 13.91C94.3344 13.9847 94.1547 14.071 94.0007 14.169C93.8514 14.2623 93.7207 14.3487 93.6087 14.428C93.5014 14.5027 93.3941 14.54 93.2867 14.54C93.2027 14.54 93.1304 14.519 93.0697 14.477C93.0091 14.4303 92.9577 14.3743 92.9157 14.309L92.6917 13.91Z" fill="white"/>
</svg>
