<svg width="99" height="30" viewBox="0 0 99 30" fill="none" xmlns="http://www.w3.org/2000/svg">
<path d="M0 15C0 6.71573 6.71573 0 15 0H99V10C99 21.0457 90.0457 30 79 30H0V15Z" fill="#3EB953"/>
<path d="M29.408 9.969V20H28.05V15.436H22.639V20H21.281V9.969H22.639V14.442H28.05V9.969H29.408ZM34.4487 12.797C34.9667 12.797 35.4333 12.8833 35.8487 13.056C36.264 13.2287 36.6187 13.4737 36.9127 13.791C37.2067 14.1083 37.4307 14.4933 37.5847 14.946C37.7433 15.394 37.8227 15.8957 37.8227 16.451C37.8227 17.011 37.7433 17.515 37.5847 17.963C37.4307 18.411 37.2067 18.7937 36.9127 19.111C36.6187 19.4283 36.264 19.6733 35.8487 19.846C35.4333 20.014 34.9667 20.098 34.4487 20.098C33.926 20.098 33.4547 20.014 33.0347 19.846C32.6193 19.6733 32.2647 19.4283 31.9707 19.111C31.6767 18.7937 31.4503 18.411 31.2917 17.963C31.1377 17.515 31.0607 17.011 31.0607 16.451C31.0607 15.8957 31.1377 15.394 31.2917 14.946C31.4503 14.4933 31.6767 14.1083 31.9707 13.791C32.2647 13.4737 32.6193 13.2287 33.0347 13.056C33.4547 12.8833 33.926 12.797 34.4487 12.797ZM34.4487 19.125C35.1487 19.125 35.6713 18.8917 36.0167 18.425C36.362 17.9537 36.5347 17.298 36.5347 16.458C36.5347 15.6133 36.362 14.9553 36.0167 14.484C35.6713 14.0127 35.1487 13.777 34.4487 13.777C34.094 13.777 33.7837 13.8377 33.5177 13.959C33.2563 14.0803 33.037 14.2553 32.8597 14.484C32.687 14.7127 32.5563 14.995 32.4677 15.331C32.3837 15.6623 32.3417 16.038 32.3417 16.458C32.3417 17.298 32.5143 17.9537 32.8597 18.425C33.2097 18.8917 33.7393 19.125 34.4487 19.125ZM42.126 19.125C42.5927 19.125 42.9613 19.0177 43.232 18.803C43.5027 18.5837 43.638 18.285 43.638 17.907C43.638 17.739 43.6123 17.5873 43.561 17.452C43.5097 17.312 43.4257 17.1907 43.309 17.088C43.1923 16.9853 43.036 16.906 42.84 16.85C42.6487 16.794 42.413 16.766 42.133 16.766H40.6V19.125H42.126ZM40.6 13.749V15.975H41.965C42.1703 15.975 42.3593 15.947 42.532 15.891C42.7093 15.8303 42.861 15.7487 42.987 15.646C43.113 15.5387 43.211 15.4127 43.281 15.268C43.351 15.1187 43.386 14.9553 43.386 14.778C43.386 14.6473 43.3627 14.5213 43.316 14.4C43.2693 14.274 43.19 14.1643 43.078 14.071C42.966 13.973 42.819 13.896 42.637 13.84C42.455 13.7793 42.231 13.749 41.965 13.749H40.6ZM42 12.909C42.4387 12.909 42.8143 12.9533 43.127 13.042C43.4397 13.1307 43.6963 13.252 43.897 13.406C44.0977 13.5553 44.2447 13.7327 44.338 13.938C44.4313 14.1433 44.478 14.3627 44.478 14.596C44.478 14.75 44.457 14.911 44.415 15.079C44.373 15.247 44.2983 15.408 44.191 15.562C44.0883 15.716 43.946 15.856 43.764 15.982C43.5867 16.1033 43.3627 16.199 43.092 16.269C43.6333 16.3623 44.051 16.5513 44.345 16.836C44.639 17.116 44.786 17.487 44.786 17.949C44.786 18.2943 44.716 18.5953 44.576 18.852C44.4407 19.104 44.2517 19.3163 44.009 19.489C43.771 19.6617 43.491 19.79 43.169 19.874C42.847 19.958 42.5017 20 42.133 20H39.403V12.909H42ZM52.4313 12.909V20H51.1853V15.184C51.1853 15.0907 51.19 14.9903 51.1993 14.883C51.2087 14.7757 51.2203 14.6683 51.2343 14.561C51.1923 14.6543 51.1503 14.7407 51.1083 14.82C51.0663 14.8993 51.022 14.9717 50.9753 15.037L47.5523 19.692C47.501 19.7667 47.4357 19.839 47.3563 19.909C47.2817 19.9743 47.1977 20.007 47.1043 20.007H46.3483V12.916H47.6013V17.732C47.6013 17.8207 47.5967 17.9187 47.5873 18.026C47.578 18.1287 47.5663 18.2337 47.5523 18.341C47.5943 18.2523 47.6363 18.1707 47.6783 18.096C47.7203 18.0167 47.7623 17.9443 47.8043 17.879L51.2273 13.224C51.2787 13.1493 51.344 13.0793 51.4233 13.014C51.5027 12.944 51.589 12.909 51.6823 12.909H52.4313ZM60.3091 12.909V20H59.0561V16.682H55.6541V20H54.4011V12.909H55.6541V15.737H59.0561V12.909H60.3091ZM66.5947 13.259C66.6601 13.1563 66.7464 13.0723 66.8537 13.007C66.9611 12.9417 67.0754 12.909 67.1967 12.909H68.1697L66.3287 15.611C66.2167 15.7837 66.1001 15.926 65.9787 16.038C65.8574 16.1453 65.7081 16.2293 65.5307 16.29C65.7547 16.3507 65.9437 16.4463 66.0977 16.577C66.2517 16.703 66.3894 16.8663 66.5107 17.067L68.3727 20H67.5047C67.2807 20 67.1081 19.9627 66.9867 19.888C66.8654 19.8133 66.7604 19.706 66.6717 19.566L65.2927 17.361C65.0734 16.997 64.7444 16.815 64.3057 16.815H63.5427V20.007H62.2897V12.909H63.5427V15.975H64.2147C64.5881 15.975 64.8797 15.8163 65.0897 15.499L66.5947 13.259ZM73.3788 16.808C72.8048 16.8267 72.3148 16.8733 71.9088 16.948C71.5075 17.018 71.1785 17.1113 70.9218 17.228C70.6698 17.3447 70.4855 17.4823 70.3688 17.641C70.2568 17.7997 70.2008 17.977 70.2008 18.173C70.2008 18.3597 70.2312 18.5207 70.2918 18.656C70.3525 18.7913 70.4342 18.9033 70.5368 18.992C70.6442 19.076 70.7678 19.139 70.9078 19.181C71.0525 19.2183 71.2065 19.237 71.3698 19.237C71.5892 19.237 71.7898 19.216 71.9718 19.174C72.1538 19.1273 72.3242 19.062 72.4828 18.978C72.6462 18.894 72.8002 18.7937 72.9448 18.677C73.0942 18.5603 73.2388 18.4273 73.3788 18.278V16.808ZM69.3538 13.91C69.7458 13.532 70.1682 13.2497 70.6208 13.063C71.0735 12.8763 71.5752 12.783 72.1258 12.783C72.5225 12.783 72.8748 12.8483 73.1828 12.979C73.4908 13.1097 73.7498 13.2917 73.9598 13.525C74.1698 13.7583 74.3285 14.0407 74.4358 14.372C74.5432 14.7033 74.5968 15.0673 74.5968 15.464V20H74.0438C73.9225 20 73.8292 19.9813 73.7638 19.944C73.6985 19.902 73.6472 19.8227 73.6098 19.706L73.4698 19.034C73.2832 19.2067 73.1012 19.3607 72.9238 19.496C72.7465 19.6267 72.5598 19.7387 72.3638 19.832C72.1678 19.9207 71.9578 19.9883 71.7338 20.035C71.5145 20.0863 71.2695 20.112 70.9988 20.112C70.7235 20.112 70.4645 20.0747 70.2218 20C69.9792 19.9207 69.7668 19.804 69.5848 19.65C69.4075 19.496 69.2652 19.3023 69.1578 19.069C69.0552 18.831 69.0038 18.551 69.0038 18.229C69.0038 17.949 69.0808 17.6807 69.2348 17.424C69.3888 17.1627 69.6385 16.9317 69.9838 16.731C70.3292 16.5303 70.7795 16.367 71.3348 16.241C71.8902 16.1103 72.5715 16.0357 73.3788 16.017V15.464C73.3788 14.9133 73.2598 14.498 73.0218 14.218C72.7838 13.9333 72.4362 13.791 71.9788 13.791C71.6708 13.791 71.4118 13.8307 71.2018 13.91C70.9965 13.9847 70.8168 14.071 70.6628 14.169C70.5135 14.2623 70.3828 14.3487 70.2708 14.428C70.1635 14.5027 70.0562 14.54 69.9488 14.54C69.8648 14.54 69.7925 14.519 69.7318 14.477C69.6712 14.4303 69.6198 14.3743 69.5778 14.309L69.3538 13.91Z" fill="white"/>
</svg>
